<svg width="357" height="198" viewBox="0 0 357 198" fill="none" xmlns="http://www.w3.org/2000/svg">
<g filter="url(#filter0_d_237_25)">
<path d="M64.5049 87.125H75.8799V51.5625C75.8799 50.6458 75.7757 49.9167 75.5674 49.375C75.359 48.8333 75.0674 48.4167 74.6924 48.125C74.3174 47.7917 73.859 47.5833 73.3174 47.5C72.8174 47.375 72.2549 47.3125 71.6299 47.3125C70.7132 47.3125 69.5674 47.4583 68.1924 47.75C66.859 48.0417 65.4424 48.4792 63.9424 49.0625C62.4424 49.6458 60.9215 50.375 59.3799 51.25C57.8799 52.0833 56.5257 53.0417 55.3174 54.125C54.1507 55.2083 53.1924 56.4167 52.4424 57.75C51.6924 59.0833 51.3174 60.5208 51.3174 62.0625C51.3174 63.3958 51.484 64.4583 51.8174 65.25C52.1924 66.0417 52.609 66.6458 53.0674 67.0625C53.5257 67.4375 53.984 67.6875 54.4424 67.8125C54.9424 67.8958 55.2965 67.9375 55.5049 67.9375C56.5465 67.9375 57.4007 67.7708 58.0674 67.4375C58.734 67.0625 59.3382 66.6875 59.8799 66.3125C60.4215 65.8958 60.9215 65.5208 61.3799 65.1875C61.8799 64.8125 62.4424 64.625 63.0674 64.625C63.5674 64.625 64.0882 64.75 64.6299 65C65.2132 65.2083 65.734 65.5625 66.1924 66.0625C66.6924 66.5625 67.109 67.2292 67.4424 68.0625C67.7757 68.8542 67.9424 69.8333 67.9424 71C67.9424 72.6667 67.609 74.1042 66.9424 75.3125C66.3174 76.5208 65.484 77.5417 64.4424 78.375C63.4424 79.1667 62.2757 79.7708 60.9424 80.1875C59.6507 80.5625 58.359 80.75 57.0674 80.75C55.0674 80.75 53.2549 80.4167 51.6299 79.75C50.0465 79.0417 48.6924 78.0833 47.5674 76.875C46.4424 75.6667 45.5882 74.25 45.0049 72.625C44.4215 71 44.1299 69.2708 44.1299 67.4375C44.1299 64.5625 44.6507 61.9375 45.6924 59.5625C46.734 57.1458 48.1507 54.9792 49.9424 53.0625C51.7757 51.1458 53.9007 49.4792 56.3174 48.0625C58.7757 46.6042 61.4215 45.3958 64.2549 44.4375C67.0882 43.4792 70.0465 42.7708 73.1299 42.3125C76.2132 41.8125 79.2965 41.5625 82.3799 41.5625C85.7965 41.5625 88.4424 41.8958 90.3174 42.5625C92.234 43.1875 93.6299 43.9583 94.5049 44.875C95.4215 45.7917 95.9632 46.75 96.1299 47.75C96.2965 48.75 96.3799 49.5833 96.3799 50.25V87.125H119.38V57.0625C119.38 50.1875 120.276 44.3333 122.067 39.5C123.859 34.6667 126.172 30.7292 129.005 27.6875C131.838 24.6042 135.005 22.375 138.505 21C142.005 19.5833 145.484 18.875 148.942 18.875C151.317 18.875 153.567 19.0625 155.692 19.4375C157.859 19.7708 159.734 20.2917 161.317 21C162.942 21.7083 164.234 22.6042 165.192 23.6875C166.151 24.7292 166.63 25.9583 166.63 27.375C166.63 28 166.526 28.6042 166.317 29.1875C166.151 29.7292 165.901 30.2292 165.567 30.6875C165.234 31.1458 164.838 31.5208 164.38 31.8125C163.963 32.0625 163.526 32.1875 163.067 32.1875C162.317 32.1875 161.651 31.9583 161.067 31.5C160.484 31.0417 159.922 30.4792 159.38 29.8125C158.88 29.1042 158.38 28.3542 157.88 27.5625C157.38 26.7292 156.817 25.9792 156.192 25.3125C155.567 24.6042 154.859 24.0208 154.067 23.5625C153.276 23.1042 152.338 22.875 151.255 22.875C148.713 22.875 146.692 23.5833 145.192 25C143.692 26.375 142.547 28.4167 141.755 31.125C140.963 33.7917 140.442 37.125 140.192 41.125C139.984 45.125 139.88 49.7083 139.88 54.875V87.125H152.442V92.625H139.88V130.625C139.88 131.833 140.13 132.812 140.63 133.562C141.172 134.271 141.984 134.625 143.067 134.625C144.234 134.625 145.317 134.417 146.317 134C147.317 133.583 148.192 133.188 148.942 132.812L150.005 135.125C149.088 135.75 148.005 136.396 146.755 137.062C145.547 137.771 144.192 138.417 142.692 139C141.234 139.625 139.651 140.125 137.942 140.5C136.276 140.917 134.526 141.125 132.692 141.125C129.859 141.125 127.567 140.75 125.817 140C124.067 139.25 122.713 138.25 121.755 137C120.797 135.792 120.151 134.417 119.817 132.875C119.526 131.333 119.38 129.771 119.38 128.188V92.625H96.3799V123.75C96.3799 129.417 95.3382 134.354 93.2549 138.562C91.2132 142.771 88.4007 146.271 84.8174 149.062C81.234 151.896 77.0049 154 72.1299 155.375C67.2965 156.792 62.109 157.5 56.5674 157.5C54.4424 157.5 52.4007 157.312 50.4424 156.938C48.484 156.604 46.7549 156.125 45.2549 155.5C43.7549 154.875 42.5674 154.125 41.6924 153.25C40.7757 152.417 40.3174 151.5 40.3174 150.5C40.3174 149.75 40.4215 148.979 40.6299 148.188C40.8382 147.438 41.1507 146.75 41.5674 146.125C41.984 145.5 42.5049 144.979 43.1299 144.562C43.7132 144.146 44.3799 143.938 45.1299 143.938C45.5882 143.938 45.984 144.167 46.3174 144.625C46.6924 145.083 47.0674 145.646 47.4424 146.312C47.8174 147.021 48.234 147.771 48.6924 148.562C49.1924 149.354 49.8174 150.083 50.5674 150.75C51.359 151.458 52.2965 152.042 53.3799 152.5C54.4632 152.958 55.8174 153.188 57.4424 153.188C60.6507 153.188 63.4007 152.604 65.6924 151.438C68.0257 150.271 69.9424 148.625 71.4424 146.5C72.9424 144.375 74.0465 141.833 74.7549 138.875C75.5049 135.958 75.8799 132.75 75.8799 129.25V92.625H64.5049V87.125Z" fill="#FBC22F"/>
<path d="M177.147 106.312C177.147 107.646 177.335 109.104 177.71 110.688C178.127 112.229 178.71 113.792 179.46 115.375C180.21 116.958 181.127 118.479 182.21 119.938C183.335 121.354 184.606 122.625 186.022 123.75C187.481 124.875 189.085 125.771 190.835 126.438C192.585 127.104 194.502 127.438 196.585 127.438C198.043 127.438 199.397 127.271 200.647 126.938C201.897 126.604 203.064 126.146 204.147 125.562C205.231 124.979 206.272 124.312 207.272 123.562C208.272 122.771 209.272 121.938 210.272 121.062L211.835 122.562C210.877 123.854 209.647 125.271 208.147 126.812C206.647 128.354 204.835 129.812 202.71 131.188C200.585 132.521 198.106 133.646 195.272 134.562C192.439 135.438 189.21 135.875 185.585 135.875C181.96 135.875 178.418 135.229 174.96 133.938C171.543 132.604 168.502 130.625 165.835 128C163.168 125.375 161.022 122.104 159.397 118.188C157.814 114.271 157.022 109.688 157.022 104.438C157.022 100.646 157.502 97.1667 158.46 94C159.418 90.8333 160.71 87.9792 162.335 85.4375C164.002 82.8958 165.918 80.6667 168.085 78.75C170.293 76.8333 172.606 75.25 175.022 74C177.439 72.7083 179.897 71.75 182.397 71.125C184.939 70.4583 187.377 70.125 189.71 70.125C192.793 70.125 195.481 70.4583 197.772 71.125C200.064 71.7917 201.96 72.6875 203.46 73.8125C205.002 74.9375 206.147 76.25 206.897 77.75C207.647 79.2083 208.022 80.75 208.022 82.375C208.022 84.3333 207.46 86.1042 206.335 87.6875C205.21 89.2292 203.71 90.5833 201.835 91.75L177.147 106.312ZM189.71 93.625C190.252 93.2917 190.689 92.9792 191.022 92.6875C191.397 92.3542 191.689 91.9792 191.897 91.5625C192.106 91.1042 192.252 90.5625 192.335 89.9375C192.46 89.2708 192.522 88.4583 192.522 87.5C192.522 86.4583 192.397 85.3125 192.147 84.0625C191.939 82.7708 191.564 81.5625 191.022 80.4375C190.481 79.3125 189.793 78.375 188.96 77.625C188.127 76.875 187.127 76.5 185.96 76.5C184.46 76.5 183.168 76.9583 182.085 77.875C181.043 78.75 180.168 79.8958 179.46 81.3125C178.793 82.7292 178.252 84.3542 177.835 86.1875C177.46 87.9792 177.168 89.7917 176.96 91.625C176.752 93.4583 176.627 95.2292 176.585 96.9375C176.543 98.6042 176.522 100.021 176.522 101.188L189.71 93.625Z" fill="#FBC22F"/>
<path d="M268.165 79.9375C268.165 87.5625 267.415 94.9375 265.915 102.062C264.457 109.146 262.415 115.812 259.79 122.062C257.207 128.271 254.123 133.938 250.54 139.062C246.957 144.229 243.061 148.646 238.852 152.312C234.644 155.979 230.186 158.833 225.477 160.875C220.811 162.917 216.082 163.938 211.29 163.938C207.623 163.938 204.79 163.312 202.79 162.062C200.79 160.854 199.79 159.208 199.79 157.125C199.79 156.333 199.915 155.562 200.165 154.812C200.415 154.062 200.748 153.396 201.165 152.812C201.582 152.229 202.082 151.75 202.665 151.375C203.248 151.042 203.873 150.875 204.54 150.875C205.332 150.875 205.998 151.271 206.54 152.062C207.04 152.854 207.582 153.708 208.165 154.625C208.748 155.583 209.457 156.458 210.29 157.25C211.123 158.042 212.269 158.438 213.727 158.438C215.602 158.438 217.561 158.104 219.602 157.438C221.644 156.812 223.686 155.896 225.727 154.688C227.811 153.479 229.873 152 231.915 150.25C233.998 148.542 236.04 146.625 238.04 144.5C236.873 140.292 235.519 135.708 233.977 130.75C232.477 125.75 230.873 120.729 229.165 115.688C227.498 110.646 225.769 105.792 223.977 101.125C222.227 96.4167 220.498 92.25 218.79 88.625C217.123 85 215.498 82.1042 213.915 79.9375C212.373 77.7292 210.998 76.625 209.79 76.625C208.998 76.625 208.394 76.75 207.977 77C207.519 77.25 206.998 77.6042 206.415 78.0625L205.165 76.5C205.998 75.7917 206.873 75.0625 207.79 74.3125C208.707 73.5625 209.79 72.875 211.04 72.25C212.29 71.625 213.748 71.125 215.415 70.75C217.082 70.3333 219.082 70.125 221.415 70.125C223.957 70.125 226.311 70.7083 228.477 71.875C230.686 73 232.686 75.1042 234.477 78.1875C235.769 80.4792 237.102 83.2292 238.477 86.4375C239.894 89.6458 241.311 93.2292 242.727 97.1875C244.144 101.146 245.561 105.438 246.977 110.062C248.436 114.646 249.894 119.458 251.352 124.5C253.936 119.083 256.019 113.354 257.602 107.312C259.186 101.229 259.977 94.9792 259.977 88.5625C259.977 86.2708 259.832 84.3125 259.54 82.6875C259.248 81.0625 258.915 79.6875 258.54 78.5625C258.165 77.3958 257.832 76.4167 257.54 75.625C257.248 74.7917 257.102 74.0625 257.102 73.4375C257.102 72.8125 257.352 72.2917 257.852 71.875C258.352 71.4167 258.957 71.0625 259.665 70.8125C260.373 70.5625 261.082 70.3958 261.79 70.3125C262.54 70.1875 263.165 70.125 263.665 70.125C264.79 70.125 265.644 70.3542 266.227 70.8125C266.852 71.2708 267.311 71.9375 267.602 72.8125C267.894 73.6458 268.061 74.6667 268.102 75.875C268.144 77.0833 268.165 78.4375 268.165 79.9375Z" fill="#FBC22F"/>
<path d="M282.932 125.5C282.932 124.042 283.203 122.667 283.745 121.375C284.287 120.083 285.016 118.958 285.932 118C286.891 117.042 288.016 116.292 289.307 115.75C290.599 115.167 291.974 114.875 293.432 114.875C294.891 114.875 296.266 115.167 297.557 115.75C298.849 116.292 299.974 117.042 300.932 118C301.891 118.958 302.641 120.083 303.182 121.375C303.766 122.667 304.057 124.042 304.057 125.5C304.057 127 303.766 128.396 303.182 129.688C302.641 130.938 301.891 132.042 300.932 133C299.974 133.917 298.849 134.646 297.557 135.188C296.266 135.729 294.891 136 293.432 136C291.974 136 290.599 135.729 289.307 135.188C288.016 134.646 286.891 133.917 285.932 133C285.016 132.042 284.287 130.938 283.745 129.688C283.203 128.396 282.932 127 282.932 125.5ZM283.432 47.8125C283.432 47.3958 283.516 46.8333 283.682 46.125C283.849 45.4167 284.245 44.7292 284.87 44.0625C285.495 43.3542 286.432 42.7708 287.682 42.3125C288.974 41.8125 290.724 41.5625 292.932 41.5625C295.141 41.5625 296.891 41.7917 298.182 42.25C299.516 42.6667 300.537 43.2083 301.245 43.875C301.953 44.5 302.412 45.1875 302.62 45.9375C302.828 46.6458 302.912 47.2708 302.87 47.8125C302.62 51.4375 302.328 55.0625 301.995 58.6875C301.703 62.3125 301.37 65.8542 300.995 69.3125C300.62 72.7708 300.224 76.125 299.807 79.375C299.391 82.5833 298.995 85.6042 298.62 88.4375C297.703 95.0625 296.745 101.417 295.745 107.5H291.12C290.037 101.417 288.995 95.0625 287.995 88.4375C287.578 85.6042 287.141 82.5833 286.682 79.375C286.266 76.125 285.849 72.7708 285.432 69.3125C285.016 65.8125 284.641 62.25 284.307 58.625C283.974 55 283.682 51.3958 283.432 47.8125Z" fill="#FBC22F"/>
<rect x="7" y="3" width="343" height="184" stroke="#43A759" stroke-width="6" shape-rendering="crispEdges"/>
</g>
<defs>
<filter id="filter0_d_237_25" x="0" y="0" width="357" height="198" filterUnits="userSpaceOnUse" color-interpolation-filters="sRGB">
<feFlood flood-opacity="0" result="BackgroundImageFix"/>
<feColorMatrix in="SourceAlpha" type="matrix" values="0 0 0 0 0 0 0 0 0 0 0 0 0 0 0 0 0 0 127 0" result="hardAlpha"/>
<feOffset dy="4"/>
<feGaussianBlur stdDeviation="2"/>
<feComposite in2="hardAlpha" operator="out"/>
<feColorMatrix type="matrix" values="0 0 0 0 0 0 0 0 0 0 0 0 0 0 0 0 0 0 0.25 0"/>
<feBlend mode="normal" in2="BackgroundImageFix" result="effect1_dropShadow_237_25"/>
<feBlend mode="normal" in="SourceGraphic" in2="effect1_dropShadow_237_25" result="shape"/>
</filter>
</defs>
</svg>
