<svg width="292" height="166" viewBox="0 0 292 166" fill="none" xmlns="http://www.w3.org/2000/svg">
<g filter="url(#filter0_d_237_25)">
<path d="M59.5038 78.0938H68.035V51.4219C68.035 50.7344 67.9569 50.1875 67.8006 49.7812C67.6444 49.375 67.4256 49.0625 67.1444 48.8438C66.8631 48.5938 66.5194 48.4375 66.1131 48.375C65.7381 48.2812 65.3163 48.2344 64.8475 48.2344C64.16 48.2344 63.3006 48.3438 62.2694 48.5625C61.2694 48.7812 60.2069 49.1094 59.0819 49.5469C57.9569 49.9844 56.8163 50.5312 55.66 51.1875C54.535 51.8125 53.5194 52.5312 52.6131 53.3438C51.7381 54.1562 51.0194 55.0625 50.4569 56.0625C49.8944 57.0625 49.6131 58.1406 49.6131 59.2969C49.6131 60.2969 49.7381 61.0938 49.9881 61.6875C50.2694 62.2812 50.5819 62.7344 50.9256 63.0469C51.2694 63.3281 51.6131 63.5156 51.9569 63.6094C52.3319 63.6719 52.5975 63.7031 52.7538 63.7031C53.535 63.7031 54.1756 63.5781 54.6756 63.3281C55.1756 63.0469 55.6288 62.7656 56.035 62.4844C56.4413 62.1719 56.8163 61.8906 57.16 61.6406C57.535 61.3594 57.9569 61.2188 58.4256 61.2188C58.8006 61.2188 59.1913 61.3125 59.5975 61.5C60.035 61.6562 60.4256 61.9219 60.7694 62.2969C61.1444 62.6719 61.4569 63.1719 61.7069 63.7969C61.9569 64.3906 62.0819 65.125 62.0819 66C62.0819 67.25 61.8319 68.3281 61.3319 69.2344C60.8631 70.1406 60.2381 70.9062 59.4569 71.5312C58.7069 72.125 57.8319 72.5781 56.8319 72.8906C55.8631 73.1719 54.8944 73.3125 53.9256 73.3125C52.4256 73.3125 51.0663 73.0625 49.8475 72.5625C48.66 72.0312 47.6444 71.3125 46.8006 70.4062C45.9569 69.5 45.3163 68.4375 44.8788 67.2188C44.4413 66 44.2225 64.7031 44.2225 63.3281C44.2225 61.1719 44.6131 59.2031 45.3944 57.4219C46.1756 55.6094 47.2381 53.9844 48.5819 52.5469C49.9569 51.1094 51.5506 49.8594 53.3631 48.7969C55.2069 47.7031 57.1913 46.7969 59.3163 46.0781C61.4413 45.3594 63.66 44.8281 65.9725 44.4844C68.285 44.1094 70.5975 43.9219 72.91 43.9219C75.4725 43.9219 77.4569 44.1719 78.8631 44.6719C80.3006 45.1406 81.3475 45.7188 82.0038 46.4062C82.6913 47.0938 83.0975 47.8125 83.2225 48.5625C83.3475 49.3125 83.41 49.9375 83.41 50.4375V78.0938H100.66V55.5469C100.66 50.3906 101.332 46 102.676 42.375C104.019 38.75 105.754 35.7969 107.879 33.5156C110.004 31.2031 112.379 29.5312 115.004 28.5C117.629 27.4375 120.238 26.9062 122.832 26.9062C124.613 26.9062 126.301 27.0469 127.894 27.3281C129.519 27.5781 130.926 27.9688 132.113 28.5C133.332 29.0312 134.301 29.7031 135.019 30.5156C135.738 31.2969 136.098 32.2188 136.098 33.2812C136.098 33.75 136.019 34.2031 135.863 34.6406C135.738 35.0469 135.551 35.4219 135.301 35.7656C135.051 36.1094 134.754 36.3906 134.41 36.6094C134.098 36.7969 133.769 36.8906 133.426 36.8906C132.863 36.8906 132.363 36.7188 131.926 36.375C131.488 36.0312 131.066 35.6094 130.66 35.1094C130.285 34.5781 129.91 34.0156 129.535 33.4219C129.16 32.7969 128.738 32.2344 128.269 31.7344C127.801 31.2031 127.269 30.7656 126.676 30.4219C126.082 30.0781 125.379 29.9062 124.566 29.9062C122.66 29.9062 121.144 30.4375 120.019 31.5C118.894 32.5312 118.035 34.0625 117.441 36.0938C116.848 38.0938 116.457 40.5938 116.269 43.5938C116.113 46.5938 116.035 50.0312 116.035 53.9062V78.0938H125.457V82.2188H116.035V110.719C116.035 111.625 116.223 112.359 116.598 112.922C117.004 113.453 117.613 113.719 118.426 113.719C119.301 113.719 120.113 113.562 120.863 113.25C121.613 112.938 122.269 112.641 122.832 112.359L123.629 114.094C122.941 114.562 122.129 115.047 121.191 115.547C120.285 116.078 119.269 116.562 118.144 117C117.051 117.469 115.863 117.844 114.582 118.125C113.332 118.438 112.019 118.594 110.644 118.594C108.519 118.594 106.801 118.312 105.488 117.75C104.176 117.188 103.16 116.438 102.441 115.5C101.723 114.594 101.238 113.562 100.988 112.406C100.769 111.25 100.66 110.078 100.66 108.891V82.2188H83.41V105.562C83.41 109.812 82.6288 113.516 81.0663 116.672C79.535 119.828 77.4256 122.453 74.7381 124.547C72.0506 126.672 68.8788 128.25 65.2225 129.281C61.5975 130.344 57.7069 130.875 53.5506 130.875C51.9569 130.875 50.4256 130.734 48.9569 130.453C47.4881 130.203 46.1913 129.844 45.0663 129.375C43.9413 128.906 43.0506 128.344 42.3944 127.688C41.7069 127.062 41.3631 126.375 41.3631 125.625C41.3631 125.062 41.4413 124.484 41.5975 123.891C41.7538 123.328 41.9881 122.812 42.3006 122.344C42.6131 121.875 43.0038 121.484 43.4725 121.172C43.91 120.859 44.41 120.703 44.9725 120.703C45.3163 120.703 45.6131 120.875 45.8631 121.219C46.1444 121.562 46.4256 121.984 46.7069 122.484C46.9881 123.016 47.3006 123.578 47.6444 124.172C48.0194 124.766 48.4881 125.312 49.0506 125.812C49.6444 126.344 50.3475 126.781 51.16 127.125C51.9725 127.469 52.9881 127.641 54.2069 127.641C56.6131 127.641 58.6756 127.203 60.3944 126.328C62.1444 125.453 63.5819 124.219 64.7069 122.625C65.8319 121.031 66.66 119.125 67.1913 116.906C67.7538 114.719 68.035 112.312 68.035 109.688V82.2188H59.5038V78.0938ZM143.986 92.4844C143.986 93.4844 144.126 94.5781 144.408 95.7656C144.72 96.9219 145.158 98.0938 145.72 99.2812C146.283 100.469 146.97 101.609 147.783 102.703C148.626 103.766 149.579 104.719 150.642 105.562C151.736 106.406 152.939 107.078 154.251 107.578C155.564 108.078 157.001 108.328 158.564 108.328C159.658 108.328 160.673 108.203 161.611 107.953C162.548 107.703 163.423 107.359 164.236 106.922C165.048 106.484 165.829 105.984 166.579 105.422C167.329 104.828 168.079 104.203 168.829 103.547L170.001 104.672C169.283 105.641 168.361 106.703 167.236 107.859C166.111 109.016 164.751 110.109 163.158 111.141C161.564 112.141 159.704 112.984 157.579 113.672C155.454 114.328 153.033 114.656 150.314 114.656C147.595 114.656 144.939 114.172 142.345 113.203C139.783 112.203 137.501 110.719 135.501 108.75C133.501 106.781 131.892 104.328 130.673 101.391C129.486 98.4531 128.892 95.0156 128.892 91.0781C128.892 88.2344 129.251 85.625 129.97 83.25C130.689 80.875 131.658 78.7344 132.876 76.8281C134.126 74.9219 135.564 73.25 137.189 71.8125C138.845 70.375 140.579 69.1875 142.392 68.25C144.204 67.2812 146.048 66.5625 147.923 66.0938C149.829 65.5938 151.658 65.3438 153.408 65.3438C155.72 65.3438 157.736 65.5938 159.454 66.0938C161.173 66.5938 162.595 67.2656 163.72 68.1094C164.876 68.9531 165.736 69.9375 166.298 71.0625C166.861 72.1562 167.142 73.3125 167.142 74.5312C167.142 76 166.72 77.3281 165.876 78.5156C165.033 79.6719 163.908 80.6875 162.501 81.5625L143.986 92.4844ZM153.408 82.9688C153.814 82.7188 154.142 82.4844 154.392 82.2656C154.673 82.0156 154.892 81.7344 155.048 81.4219C155.204 81.0781 155.314 80.6719 155.376 80.2031C155.47 79.7031 155.517 79.0938 155.517 78.375C155.517 77.5938 155.423 76.7344 155.236 75.7969C155.079 74.8281 154.798 73.9219 154.392 73.0781C153.986 72.2344 153.47 71.5312 152.845 70.9688C152.22 70.4062 151.47 70.125 150.595 70.125C149.47 70.125 148.501 70.4688 147.689 71.1562C146.908 71.8125 146.251 72.6719 145.72 73.7344C145.22 74.7969 144.814 76.0156 144.501 77.3906C144.22 78.7344 144.001 80.0938 143.845 81.4688C143.689 82.8438 143.595 84.1719 143.564 85.4531C143.533 86.7031 143.517 87.7656 143.517 88.6406L153.408 82.9688ZM212.249 72.7031C212.249 78.4219 211.686 83.9531 210.561 89.2969C209.468 94.6094 207.936 99.6094 205.968 104.297C204.03 108.953 201.718 113.203 199.03 117.047C196.343 120.922 193.421 124.234 190.264 126.984C187.108 129.734 183.764 131.875 180.233 133.406C176.733 134.938 173.186 135.703 169.593 135.703C166.843 135.703 164.718 135.234 163.218 134.297C161.718 133.391 160.968 132.156 160.968 130.594C160.968 130 161.061 129.422 161.249 128.859C161.436 128.297 161.686 127.797 161.999 127.359C162.311 126.922 162.686 126.562 163.124 126.281C163.561 126.031 164.03 125.906 164.53 125.906C165.124 125.906 165.624 126.203 166.03 126.797C166.405 127.391 166.811 128.031 167.249 128.719C167.686 129.438 168.218 130.094 168.843 130.688C169.468 131.281 170.327 131.578 171.421 131.578C172.827 131.578 174.296 131.328 175.827 130.828C177.358 130.359 178.889 129.672 180.421 128.766C181.983 127.859 183.53 126.75 185.061 125.438C186.624 124.156 188.155 122.719 189.655 121.125C188.78 117.969 187.764 114.531 186.608 110.812C185.483 107.062 184.28 103.297 182.999 99.5156C181.749 95.7344 180.452 92.0938 179.108 88.5938C177.796 85.0625 176.499 81.9375 175.218 79.2188C173.968 76.5 172.749 74.3281 171.561 72.7031C170.405 71.0469 169.374 70.2188 168.468 70.2188C167.874 70.2188 167.421 70.3125 167.108 70.5C166.764 70.6875 166.374 70.9531 165.936 71.2969L164.999 70.125C165.624 69.5938 166.28 69.0469 166.968 68.4844C167.655 67.9219 168.468 67.4062 169.405 66.9375C170.343 66.4688 171.436 66.0938 172.686 65.8125C173.936 65.5 175.436 65.3438 177.186 65.3438C179.093 65.3438 180.858 65.7812 182.483 66.6562C184.139 67.5 185.639 69.0781 186.983 71.3906C187.952 73.1094 188.952 75.1719 189.983 77.5781C191.046 79.9844 192.108 82.6719 193.171 85.6406C194.233 88.6094 195.296 91.8281 196.358 95.2969C197.452 98.7344 198.546 102.344 199.639 106.125C201.577 102.062 203.139 97.7656 204.327 93.2344C205.514 88.6719 206.108 83.9844 206.108 79.1719C206.108 77.4531 205.999 75.9844 205.78 74.7656C205.561 73.5469 205.311 72.5156 205.03 71.6719C204.749 70.7969 204.499 70.0625 204.28 69.4688C204.061 68.8438 203.952 68.2969 203.952 67.8281C203.952 67.3594 204.139 66.9688 204.514 66.6562C204.889 66.3125 205.343 66.0469 205.874 65.8594C206.405 65.6719 206.936 65.5469 207.468 65.4844C208.03 65.3906 208.499 65.3438 208.874 65.3438C209.718 65.3438 210.358 65.5156 210.796 65.8594C211.264 66.2031 211.608 66.7031 211.827 67.3594C212.046 67.9844 212.171 68.75 212.202 69.6562C212.233 70.5625 212.249 71.5781 212.249 72.7031ZM223.324 106.875C223.324 105.781 223.527 104.75 223.934 103.781C224.34 102.812 224.887 101.969 225.574 101.25C226.293 100.531 227.137 99.9688 228.106 99.5625C229.074 99.125 230.106 98.9062 231.199 98.9062C232.293 98.9062 233.324 99.125 234.293 99.5625C235.262 99.9688 236.106 100.531 236.824 101.25C237.543 101.969 238.106 102.812 238.512 103.781C238.949 104.75 239.168 105.781 239.168 106.875C239.168 108 238.949 109.047 238.512 110.016C238.106 110.953 237.543 111.781 236.824 112.5C236.106 113.188 235.262 113.734 234.293 114.141C233.324 114.547 232.293 114.75 231.199 114.75C230.106 114.75 229.074 114.547 228.106 114.141C227.137 113.734 226.293 113.188 225.574 112.5C224.887 111.781 224.34 110.953 223.934 110.016C223.527 109.047 223.324 108 223.324 106.875ZM223.699 48.6094C223.699 48.2969 223.762 47.875 223.887 47.3438C224.012 46.8125 224.309 46.2969 224.777 45.7969C225.246 45.2656 225.949 44.8281 226.887 44.4844C227.856 44.1094 229.168 43.9219 230.824 43.9219C232.481 43.9219 233.793 44.0938 234.762 44.4375C235.762 44.75 236.527 45.1562 237.059 45.6562C237.59 46.125 237.934 46.6406 238.09 47.2031C238.246 47.7344 238.309 48.2031 238.277 48.6094C238.09 51.3281 237.871 54.0469 237.621 56.7656C237.402 59.4844 237.152 62.1406 236.871 64.7344C236.59 67.3281 236.293 69.8438 235.981 72.2812C235.668 74.6875 235.371 76.9531 235.09 79.0781C234.402 84.0469 233.684 88.8125 232.934 93.375H229.465C228.652 88.8125 227.871 84.0469 227.121 79.0781C226.809 76.9531 226.481 74.6875 226.137 72.2812C225.824 69.8438 225.512 67.3281 225.199 64.7344C224.887 62.1094 224.606 59.4375 224.356 56.7188C224.106 54 223.887 51.2969 223.699 48.6094Z" fill="#FBC22F"/>
<rect x="7" y="3" width="278" height="152" rx="3" stroke="#43A759" stroke-width="6" shape-rendering="crispEdges"/>
</g>
<defs>
<filter id="filter0_d_237_25" x="0" y="0" width="292" height="166" filterUnits="userSpaceOnUse" color-interpolation-filters="sRGB">
<feFlood flood-opacity="0" result="BackgroundImageFix"/>
<feColorMatrix in="SourceAlpha" type="matrix" values="0 0 0 0 0 0 0 0 0 0 0 0 0 0 0 0 0 0 127 0" result="hardAlpha"/>
<feOffset dy="4"/>
<feGaussianBlur stdDeviation="2"/>
<feComposite in2="hardAlpha" operator="out"/>
<feColorMatrix type="matrix" values="0 0 0 0 0 0 0 0 0 0 0 0 0 0 0 0 0 0 0.25 0"/>
<feBlend mode="normal" in2="BackgroundImageFix" result="effect1_dropShadow_237_25"/>
<feBlend mode="normal" in="SourceGraphic" in2="effect1_dropShadow_237_25" result="shape"/>
</filter>
</defs>
</svg>
