<svg width="349" height="198" viewBox="0 0 349 198" fill="none" xmlns="http://www.w3.org/2000/svg">
<g filter="url(#filter0_d_237_25)">
<rect x="12.5" y="18.5" width="315" height="145" stroke="#7B00A7"/>
<rect x="21.5" y="10.5" width="314" height="144" stroke="#49CE66"/>
<path d="M29 104.842C29 104.246 29.2122 103.613 29.6366 102.943C30.061 102.273 30.6127 101.64 31.2917 101.044C31.9708 100.448 32.6922 99.9642 33.4561 99.5918C34.2201 99.2195 34.9415 99.0333 35.6206 99.0333C35.7903 99.0333 36.0449 99.0333 36.3845 99.0333C36.8089 99.0333 37.1059 99.0705 37.2757 99.145C36.2571 100.113 35.663 101.081 35.4932 102.049C35.4084 103.018 35.3659 104.06 35.3659 105.177C35.3659 106.89 35.7903 108.305 36.6391 109.422C37.5728 110.465 38.7186 111.321 40.0767 111.992C41.4348 112.587 42.9201 112.997 44.5328 113.221C46.2304 113.518 47.8431 113.667 49.3709 113.667C55.7369 113.667 61.5935 112.923 66.9409 111.433C72.2882 109.869 77.1688 107.784 81.5825 105.177C86.0811 102.496 90.1553 99.3684 93.805 95.7937C97.4548 92.1445 100.808 88.2346 103.863 84.0641C107.004 79.8191 109.847 75.4251 112.394 70.8822C115.025 66.3393 117.486 61.7592 119.778 57.1418H119.396H119.141C119.057 57.1418 119.014 57.1046 119.014 57.0301C116.468 57.0301 114.006 57.6631 111.63 58.9292C109.253 60.1208 106.876 61.4985 104.5 63.0625C102.123 64.552 99.7041 65.9297 97.2426 67.1958C94.7812 68.3874 92.2348 68.9831 89.6035 68.9831C89.6035 68.3874 90.5797 67.2703 92.5319 65.6318C94.569 63.9934 97.1153 62.0943 100.171 59.9346C103.227 57.7749 106.494 55.5034 109.974 53.1203C113.539 50.7371 116.807 48.5774 119.778 46.641C122.834 44.6303 125.38 42.9918 127.417 41.7258C129.454 40.3853 130.473 39.715 130.473 39.715C132.085 39.715 133.231 40.3108 133.91 41.5024C134.589 42.6195 134.929 43.7738 134.929 44.9654C134.929 45.1888 134.886 45.5612 134.802 46.0825C134.802 46.6038 134.759 46.9017 134.674 46.9762C130.94 54.0512 127.841 59.9346 125.38 64.6264C122.919 69.3183 120.924 73.0792 119.396 75.9092C117.868 78.7392 116.722 80.8617 115.958 82.2767C115.279 83.6172 114.813 84.5109 114.558 84.9577C114.388 85.4046 114.346 85.5908 114.431 85.5163C114.6 85.3674 114.813 85.2556 115.067 85.1812C115.916 84.8833 117.571 84.5109 120.033 84.0641C122.579 83.5427 125.253 83.0214 128.054 82.5001C130.94 81.9788 133.613 81.532 136.075 81.1596C138.621 80.7127 140.361 80.4149 141.295 80.2659L142.823 78.9254C146.557 72.0738 150.377 65.2967 154.281 58.5941C158.271 51.817 162.175 45.0399 165.995 38.2628C167.607 37.0712 168.668 36.8105 169.178 37.4808C169.687 38.0766 169.899 39.082 169.814 40.497C169.814 41.912 169.559 43.4387 169.05 45.0771C168.541 46.641 168.074 47.7954 167.65 48.5401L136.329 109.199C135.565 110.688 134.759 111.582 133.91 111.88C133.062 112.178 132.001 112.327 130.727 112.327C129.963 112.327 129.115 112.29 128.181 112.215C127.247 112.141 126.653 111.657 126.399 110.763C128.011 109.497 129.497 107.896 130.855 105.959C132.298 103.949 133.528 101.901 134.547 99.8152C135.565 97.6555 136.329 95.533 136.839 93.4477C137.433 91.288 137.73 89.3889 137.73 87.7505C137.56 87.7505 137.305 87.7133 136.966 87.6388C136.711 87.5643 136.499 87.5643 136.329 87.6388C133.698 88.3835 130.897 88.9793 127.926 89.4262C124.956 89.7985 121.985 90.2454 119.014 90.7667C116.043 91.2135 113.2 91.8466 110.484 92.6658C107.768 93.485 105.391 94.6766 103.354 96.2405C98.4309 99.8897 94.187 103.167 90.6221 106.071C87.0572 108.901 83.4074 111.321 79.6727 113.332C75.938 115.343 71.7365 116.87 67.0682 117.912C62.3999 118.955 56.5856 119.476 49.6256 119.476C46.8246 119.476 44.1933 119.216 41.7318 118.694C39.2703 118.247 37.0635 117.466 35.1113 116.348C33.2439 115.231 31.7586 113.742 30.6551 111.88C29.5517 110.018 29 107.672 29 104.842Z" fill="#FBC22F"/>
<path d="M157.546 106.853C156.103 104.023 155.466 101.267 155.636 98.5864C155.806 95.8309 156.485 93.2616 157.673 90.8784C158.946 88.4208 160.559 86.2238 162.511 84.2875C164.548 82.2767 166.713 80.5638 169.004 79.1488C171.296 77.6593 173.588 76.5422 175.88 75.7975C178.256 75.0528 180.336 74.7549 182.118 74.9038C183.901 74.9783 185.301 75.5368 186.32 76.5795C187.338 77.6221 187.678 79.2233 187.338 81.383C187.338 84.2875 186.277 86.8196 184.155 88.9793C182.118 91.1391 179.826 93.0754 177.28 94.7883C174.819 96.5012 172.527 98.0651 170.405 99.4801C168.368 100.821 167.349 102.087 167.349 103.278C167.349 103.949 167.774 104.47 168.622 104.842C169.556 105.215 170.617 105.512 171.805 105.736C172.994 105.885 174.182 105.997 175.37 106.071C176.559 106.146 177.407 106.22 177.917 106.294C185.895 104.805 191.879 103.911 195.869 103.613C199.858 103.241 202.362 103.278 203.38 103.725C204.399 104.097 204.187 104.731 202.744 105.624C201.386 106.443 199.264 107.337 196.378 108.305C193.492 109.199 190.139 110.018 186.32 110.763C182.5 111.508 178.723 111.954 174.988 112.103C171.254 112.178 167.774 111.843 164.548 111.098C161.408 110.353 159.074 108.938 157.546 106.853ZM179.826 81.383C178.129 81.383 176.516 81.7926 174.988 82.6118C173.461 83.431 172.06 84.4737 170.787 85.7397C169.599 86.9313 168.58 88.2718 167.731 89.7613C166.882 91.1763 166.246 92.5168 165.821 93.7829C165.991 93.8574 166.118 93.8946 166.203 93.8946H166.585C167.774 93.8946 169.132 93.4477 170.66 92.5541C172.187 91.6604 173.63 90.5805 174.988 89.3145C176.346 87.9739 177.492 86.5962 178.426 85.1812C179.36 83.7662 179.826 82.5001 179.826 81.383Z" fill="#FBC22F"/>
<path d="M190.348 146.399C193.064 142.526 196.205 139.063 199.77 136.009C203.334 133.031 206.984 130.201 210.719 127.519C214.539 124.838 218.316 122.232 222.05 119.7C225.785 117.168 229.223 114.449 232.363 111.545C235.588 108.64 238.347 105.438 240.639 101.938C242.931 98.363 244.501 94.2297 245.35 89.5379C245.35 89.3889 245.307 89.1655 245.222 88.8676C245.222 88.4952 245.222 88.2346 245.222 88.0856C243.27 90.0964 240.893 92.3679 238.092 94.9C235.376 97.4321 232.406 99.8152 229.18 102.049C226.04 104.284 222.729 106.146 219.249 107.635C215.769 109.124 212.374 109.869 209.064 109.869C208.215 109.869 207.112 109.832 205.754 109.757C204.48 109.609 203.207 109.348 201.934 108.976C200.661 108.603 199.557 108.082 198.624 107.412C197.69 106.741 197.223 105.848 197.223 104.731C197.223 103.762 197.52 102.273 198.114 100.262C198.709 98.2513 199.515 96.0171 200.533 93.5595C201.552 91.1018 202.698 88.607 203.971 86.0749C205.244 83.5427 206.602 81.2341 208.045 79.1488C209.488 77.0635 210.889 75.3506 212.247 74.0101C213.69 72.6696 215.005 71.9993 216.194 71.9993C217.382 71.9993 218.401 72.2228 219.249 72.6696C220.098 73.1164 220.522 73.8612 220.522 74.9038C220.522 76.7656 219.759 78.6275 218.231 80.4893C216.703 82.3512 215.048 84.362 213.265 86.5217C211.483 88.607 209.828 90.8784 208.3 93.336C206.772 95.7937 206.008 98.5864 206.008 101.714C211.61 101.714 216.66 100.709 221.159 98.6981C225.658 96.6129 229.732 94.0435 233.382 90.9901C237.031 87.9367 240.257 84.6226 243.058 81.0479C245.859 77.4731 248.32 74.1591 250.442 71.1056C252.649 68.0522 254.516 65.5201 256.044 63.5093C257.657 61.4241 259.015 60.3814 260.118 60.3814C261.731 60.3814 262.665 60.8283 262.919 61.722C263.259 62.5412 263.429 63.5838 263.429 64.8499C262.665 67.1585 261.604 69.8768 260.246 73.0047C258.888 76.0581 257.487 79.2977 256.044 82.7235C254.686 86.0749 253.413 89.4262 252.225 92.7775C251.121 96.1288 250.4 99.1822 250.06 101.938C250.06 102.012 250.06 102.124 250.06 102.273C250.145 102.422 250.188 102.534 250.188 102.608C251.715 102.161 253.158 101.379 254.516 100.262C255.875 99.145 257.19 98.0279 258.463 96.9108C259.821 95.7192 261.179 94.6766 262.538 93.7829C263.896 92.8147 265.296 92.3306 266.739 92.3306C266.824 92.3306 267.121 92.852 267.63 93.8946C268.224 94.9372 268.224 96.2033 267.63 97.6927C266.866 98.2141 265.466 99.1077 263.429 100.374C261.477 101.64 259.397 102.98 257.19 104.395C254.983 105.736 252.904 107.076 250.952 108.417C248.999 109.683 247.641 110.651 246.877 111.321C245.689 112.364 244.458 113.854 243.185 115.79C241.912 117.726 240.639 119.886 239.366 122.269C238.092 124.727 236.819 127.296 235.546 129.977C234.358 132.658 233.169 135.265 231.981 137.797C230.793 140.403 229.605 142.787 228.416 144.946C227.313 147.18 226.294 149.005 225.361 150.42C224.936 151.016 224.045 152.17 222.687 153.883C221.414 155.67 219.971 157.57 218.358 159.58C216.83 161.591 215.302 163.49 213.775 165.278C212.332 167.139 211.228 168.443 210.464 169.187C210.125 169.56 209.191 170.416 207.663 171.757C206.136 173.172 204.395 174.699 202.443 176.337C200.576 178.05 198.709 179.725 196.841 181.364C194.889 183.002 193.404 184.231 192.385 185.05C191.367 185.572 190.009 186.205 188.311 186.949C186.613 187.769 184.873 188.439 183.091 188.96C181.224 189.482 179.441 189.817 177.744 189.966C175.961 190.115 174.518 189.779 173.415 188.96C172.311 188.215 171.675 186.912 171.505 185.05C171.25 183.263 171.717 180.694 172.905 177.342C174.009 174.065 175.961 169.895 178.762 164.831C181.563 159.767 185.425 153.622 190.348 146.399ZM230.326 122.381C230.156 122.381 229.859 122.418 229.435 122.492C229.095 122.641 228.841 122.753 228.671 122.828C228.501 122.977 228.119 123.237 227.525 123.61C226.931 123.982 226.252 124.392 225.488 124.838C224.809 125.285 224.13 125.732 223.451 126.179C222.857 126.626 222.432 126.961 222.178 127.184C219.801 128.674 217.085 130.759 214.029 133.44C210.974 136.196 207.791 139.212 204.48 142.489C201.255 145.84 198.072 149.34 194.931 152.989C191.791 156.713 188.99 160.251 186.528 163.602C183.982 167.028 181.945 170.156 180.417 172.986C178.889 175.816 178.083 178.087 177.998 179.8C177.913 181.513 178.72 182.518 180.417 182.816C182.115 183.114 185.001 182.407 189.075 180.694C189.924 180.023 191.154 179.018 192.767 177.677C194.295 176.411 195.823 175.071 197.351 173.656C198.963 172.315 200.406 171.049 201.679 169.858C202.953 168.741 203.716 168.033 203.971 167.735C204.395 167.214 205.075 166.395 206.008 165.278C206.942 164.16 207.96 162.894 209.064 161.479C210.167 160.064 211.313 158.575 212.501 157.011C213.69 155.447 214.793 153.92 215.812 152.431C216.915 151.016 217.849 149.75 218.613 148.633C219.461 147.516 220.056 146.659 220.395 146.063C221.159 144.872 222.093 143.159 223.196 140.925C224.384 138.765 225.488 136.494 226.506 134.11C227.525 131.802 228.416 129.567 229.18 127.408C229.944 125.248 230.326 123.572 230.326 122.381Z" fill="#FBC22F"/>
<path d="M280.444 105.401C280.444 105.252 280.656 104.991 281.08 104.619C281.505 104.246 281.844 104.023 282.099 103.949C282.438 103.874 283.075 103.837 284.009 103.837C284.942 103.762 285.918 103.688 286.937 103.613C288.04 103.539 289.059 103.502 289.992 103.502C290.926 103.427 291.563 103.39 291.902 103.39C291.902 105.475 291.478 107.449 290.629 109.311C289.865 111.098 288.125 112.215 285.409 112.662C284.306 112.811 283.414 112.587 282.735 111.992C282.141 111.396 281.674 110.651 281.335 109.757C280.995 108.864 280.741 108.007 280.571 107.188C280.486 106.294 280.444 105.699 280.444 105.401ZM285.282 64.403C285.282 62.1688 285.579 60.0463 286.173 58.0355C286.767 55.9503 287.489 53.9395 288.337 52.0031C289.186 50.0668 290.077 48.1305 291.011 46.1942C292.03 44.2579 292.921 42.2843 293.685 40.2735C294.024 39.3799 294.576 37.7787 295.34 35.47C296.189 33.0868 297.037 30.592 297.886 27.9854C298.82 25.3788 299.669 22.9212 300.433 20.6125C301.196 18.2293 301.706 16.5909 301.96 15.6972C302.3 13.612 303.361 12.1597 305.143 11.3405C307.011 10.4468 308.963 10 311 10C311 15.3621 310.066 20.4636 308.199 25.3043C306.417 30.0707 304.337 34.7625 301.96 39.3799C299.584 43.9972 297.25 48.6518 294.958 53.3437C292.751 57.961 291.223 62.8018 290.374 67.866H289.611C286.725 67.866 285.282 66.7117 285.282 64.403Z" fill="#FBC22F"/>
</g>
<defs>
<filter id="filter0_d_237_25" x="-4" y="0" width="357" height="198" filterUnits="userSpaceOnUse" color-interpolation-filters="sRGB">
<feFlood flood-opacity="0" result="BackgroundImageFix"/>
<feColorMatrix in="SourceAlpha" type="matrix" values="0 0 0 0 0 0 0 0 0 0 0 0 0 0 0 0 0 0 127 0" result="hardAlpha"/>
<feOffset dy="4"/>
<feGaussianBlur stdDeviation="2"/>
<feComposite in2="hardAlpha" operator="out"/>
<feColorMatrix type="matrix" values="0 0 0 0 0 0 0 0 0 0 0 0 0 0 0 0 0 0 0.25 0"/>
<feBlend mode="normal" in2="BackgroundImageFix" result="effect1_dropShadow_237_25"/>
<feBlend mode="normal" in="SourceGraphic" in2="effect1_dropShadow_237_25" result="shape"/>
</filter>
</defs>
</svg>
