<svg width="382" height="191" viewBox="0 0 382 191" fill="none" xmlns="http://www.w3.org/2000/svg">
<g filter="url(#filter0_d_237_25)">
<rect x="12.5" y="22.5" width="338" height="148" stroke="#7B00A7"/>
<rect x="21.5" y="30.5" width="337" height="148" stroke="#49CE66"/>
<path d="M58.7751 61.272L58.8391 55.608V49.208C58.8391 46.2 58.7645 43.7253 58.6151 41.784C58.9778 41.72 59.4151 41.688 59.9271 41.688C60.9725 41.688 61.4951 42.0933 61.4951 42.904C61.4951 43.032 61.4738 43.4587 61.4311 44.184C61.3031 46.4027 61.2391 48.3653 61.2391 50.072V56.504C61.2391 59.384 61.4418 61.496 61.8471 62.84C61.4631 63.0107 60.9618 63.096 60.3431 63.096C59.7245 63.096 59.3085 62.9573 59.0951 62.68C58.8818 62.4027 58.7751 61.9333 58.7751 61.272ZM66.9896 43.864C66.9896 42.8187 66.467 42.1893 65.4216 41.976C65.2083 41.6347 65.1016 41.2613 65.1016 40.856C65.1016 40.4507 65.283 40.0987 65.6456 39.8C66.0083 39.48 66.4563 39.32 66.9896 39.32C67.523 39.32 67.9816 39.5653 68.3656 40.056C68.771 40.5467 68.9736 41.3893 68.9736 42.584C68.9736 43.7573 68.6003 44.9093 67.8536 46.04C67.1283 47.1707 66.2643 47.736 65.2616 47.736C64.707 47.736 64.4296 47.416 64.4296 46.776C64.4296 46.6053 64.4403 46.4773 64.4616 46.392H64.6216C65.3043 46.392 65.8696 46.136 66.3176 45.624C66.7656 45.112 66.9896 44.5253 66.9896 43.864ZM90.4181 61.464L90.6101 53.176C90.6101 51.96 90.3541 51.064 89.8421 50.488C89.3515 49.8907 88.7008 49.592 87.8901 49.592C86.6528 49.592 85.3301 50.1573 83.9221 51.288C83.9648 54.1893 83.9861 56.504 83.9861 58.232C83.9861 59.9387 84.0501 61.5173 84.1781 62.968C83.8368 63.032 83.4741 63.064 83.0901 63.064C82.1301 63.064 81.6501 62.6587 81.6501 61.848C81.6501 61.7627 81.6608 61.336 81.6821 60.568C81.7675 58.7333 81.8101 56.2693 81.8101 53.176C81.8101 50.7867 80.8715 49.592 78.9941 49.592C77.7781 49.592 76.4661 50.1787 75.0581 51.352C75.1008 54.2533 75.1221 56.5573 75.1221 58.264C75.1221 59.9493 75.1861 61.5173 75.3141 62.968C74.9728 63.032 74.6101 63.064 74.2261 63.064C73.2661 63.064 72.7861 62.6587 72.7861 61.848C72.7861 61.7627 72.8075 60.984 72.8501 59.512C72.9141 58.0187 72.9461 56.536 72.9461 55.064C72.9461 51.5653 72.7435 49.304 72.3381 48.28C72.7648 48.1093 73.1488 48.024 73.4901 48.024C74.4715 48.024 74.9621 48.5573 74.9621 49.624C75.6235 49.0907 76.4128 48.6533 77.3301 48.312C78.2475 47.9707 79.1328 47.8 79.9861 47.8C81.7355 47.8 82.9195 48.4933 83.5381 49.88C84.1141 49.304 84.9141 48.8133 85.9381 48.408C86.9835 48.0027 88.0181 47.8 89.0421 47.8C90.0875 47.8 90.9728 48.1627 91.6981 48.888C92.4235 49.592 92.7861 50.7333 92.7861 52.312L92.6901 58.008C92.6901 59.9707 92.8715 61.5813 93.2341 62.84C92.8075 63.0107 92.3488 63.096 91.8581 63.096C91.3888 63.096 91.0261 62.9787 90.7701 62.744C90.5355 62.488 90.4181 62.0613 90.4181 61.464ZM114.127 53.016L114.063 57.336C114.063 59.7893 114.266 61.624 114.671 62.84C114.33 63.0107 113.914 63.096 113.423 63.096C112.954 63.096 112.623 62.9893 112.431 62.776C112.239 62.5413 112.111 62.1787 112.047 61.688C110.724 62.776 109.359 63.32 107.951 63.32C104.666 63.32 103.023 61.816 103.023 58.808C103.023 57.72 103.279 56.92 103.791 56.408C104.303 55.896 105.007 55.512 105.903 55.256C107.503 54.8293 109.53 54.5413 111.983 54.392C111.983 52.5787 111.759 51.3307 111.311 50.648C110.863 49.944 109.914 49.592 108.463 49.592C107.866 49.592 107.247 49.784 106.607 50.168C105.967 50.552 105.487 51.1067 105.167 51.832C104.186 51.64 103.695 51.2133 103.695 50.552C103.695 49.72 104.207 49.0587 105.231 48.568C106.255 48.056 107.567 47.8 109.167 47.8C110.767 47.8 111.994 48.184 112.847 48.952C113.7 49.6987 114.127 51.0533 114.127 53.016ZM111.951 56.024C111.332 56.088 110.863 56.1413 110.543 56.184C110.244 56.2267 109.828 56.28 109.295 56.344C108.783 56.408 108.399 56.472 108.143 56.536C107.887 56.6 107.567 56.6853 107.183 56.792C106.82 56.8987 106.543 57.016 106.351 57.144C106.18 57.272 105.999 57.4107 105.807 57.56C105.444 57.8587 105.263 58.2747 105.263 58.808C105.263 59.768 105.54 60.4827 106.095 60.952C106.65 61.4 107.354 61.624 108.207 61.624C109.658 61.624 110.884 61.144 111.887 60.184C111.866 59.8853 111.855 59.3413 111.855 58.552C111.855 57.7627 111.887 56.92 111.951 56.024ZM142.746 47.8C143.535 47.8 143.93 48.1947 143.93 48.984C143.93 49.7733 143.738 50.8933 143.354 52.344C142.991 53.7947 142.543 55.224 142.01 56.632C140.645 60.0027 139.418 62.072 138.33 62.84C138.074 63.0107 137.786 63.096 137.466 63.096C137.167 63.096 136.858 63.064 136.538 63C135.983 60.184 135.141 57.1333 134.01 53.848C132.837 57.56 131.61 60.2267 130.33 61.848C129.925 62.3387 129.594 62.6693 129.338 62.84C129.103 63.0107 128.826 63.096 128.506 63.096C128.207 63.096 127.898 63.064 127.578 63C127.109 60.5467 126.362 57.7627 125.338 54.648C124.314 51.5333 123.45 49.592 122.746 48.824C123.386 48.248 123.973 47.96 124.506 47.96C125.039 47.96 125.466 48.3333 125.786 49.08C126.17 50.04 126.746 51.7787 127.514 54.296C128.282 56.8133 128.858 58.9467 129.242 60.696C130.031 59.5653 130.831 57.7733 131.642 55.32C132.453 52.8667 132.858 50.7547 132.858 48.984C132.858 48.6213 132.826 48.28 132.762 47.96C133.082 47.8533 133.423 47.8 133.786 47.8C134.575 47.8 134.97 48.2267 134.97 49.08C134.97 49.9333 134.959 50.4347 134.938 50.584C135.429 51.3947 135.994 52.8133 136.634 54.84C137.274 56.8667 137.797 58.8187 138.202 60.696C138.991 59.5653 139.791 57.7733 140.602 55.32C141.413 52.8667 141.818 50.7547 141.818 48.984C141.818 48.6213 141.786 48.28 141.722 47.96C142.042 47.8533 142.383 47.8 142.746 47.8ZM153.125 47.8C154.619 47.8 155.824 48.2267 156.741 49.08C157.68 49.912 158.149 50.8187 158.149 51.8C158.149 52.7813 158 53.5493 157.701 54.104C157.403 54.6587 157.008 55.096 156.517 55.416C156.048 55.736 155.365 55.9813 154.469 56.152C153.104 56.408 151.056 56.536 148.325 56.536C148.496 58.072 148.955 59.288 149.701 60.184C150.469 61.08 151.6 61.528 153.093 61.528C154.587 61.528 155.643 60.9733 156.261 59.864C157.115 60.2053 157.541 60.6747 157.541 61.272C157.541 61.8693 157.051 62.36 156.069 62.744C155.109 63.128 154.032 63.32 152.837 63.32C150.832 63.32 149.189 62.6907 147.909 61.432C146.629 60.152 145.989 58.2427 145.989 55.704C145.989 53.144 146.693 51.192 148.101 49.848C149.531 48.4827 151.205 47.8 153.125 47.8ZM152.997 49.56C151.717 49.56 150.619 49.9973 149.701 50.872C148.805 51.7467 148.336 53.1013 148.293 54.936C151.344 54.936 153.371 54.712 154.373 54.264C154.8 54.072 155.163 53.7947 155.461 53.432C155.781 53.0693 155.941 52.5893 155.941 51.992C155.941 51.3733 155.653 50.8187 155.077 50.328C154.523 49.816 153.829 49.56 152.997 49.56ZM163.549 49.496C165.106 48.3653 166.738 47.8 168.445 47.8C170.151 47.8 171.517 48.408 172.541 49.624C173.586 50.8187 174.109 52.6 174.109 54.968C174.109 57.336 173.533 59.32 172.381 60.92C171.229 62.52 169.522 63.32 167.261 63.32C164.999 63.32 163.015 62.5947 161.309 61.144C161.458 59.864 161.533 57.9227 161.533 55.32C161.533 52.7173 161.479 49.6027 161.373 45.976C161.266 42.3493 161.149 40.1307 161.021 39.32C161.277 39.256 161.661 39.224 162.173 39.224C163.133 39.224 163.613 39.6293 163.613 40.44C163.613 40.7173 163.602 42.1253 163.581 44.664C163.559 47.2027 163.549 48.8133 163.549 49.496ZM163.581 51.288L163.613 56.024C163.613 57.7307 163.581 59.0107 163.517 59.864C164.775 60.9733 166.13 61.528 167.581 61.528C169.053 61.528 170.13 60.92 170.813 59.704C171.517 58.4667 171.869 56.952 171.869 55.16C171.869 53.3467 171.485 51.9707 170.717 51.032C169.949 50.072 168.989 49.592 167.837 49.592C166.301 49.592 164.882 50.1573 163.581 51.288ZM176.823 53.592L179.479 53.72C180.481 53.72 181.313 53.6453 181.975 53.496C182.039 53.688 182.071 53.9867 182.071 54.392C182.071 54.7973 181.964 55.1173 181.751 55.352C181.537 55.5867 181.26 55.704 180.919 55.704L178.455 55.544C177.452 55.544 176.556 55.6293 175.767 55.8C175.703 55.48 175.671 55.16 175.671 54.84C175.671 54.4987 175.756 54.2107 175.927 53.976C176.119 53.72 176.417 53.592 176.823 53.592ZM196.038 40.44L195.75 55.864C195.75 59.4267 195.952 61.752 196.358 62.84C196.016 63.0107 195.611 63.096 195.142 63.096C194.246 63.096 193.776 62.5627 193.734 61.496C192.454 62.712 191.003 63.32 189.382 63.32C187.782 63.32 186.352 62.5947 185.094 61.144C183.835 59.672 183.206 57.7947 183.206 55.512C183.206 53.2293 183.856 51.3733 185.158 49.944C186.48 48.5147 188.07 47.8 189.926 47.8C191.206 47.8 192.443 48.1627 193.638 48.888C193.68 47.5227 193.702 45.976 193.702 44.248C193.702 42.4987 193.616 40.856 193.446 39.32C193.787 39.256 194.171 39.224 194.598 39.224C195.558 39.224 196.038 39.6293 196.038 40.44ZM193.574 50.552C192.443 49.912 191.344 49.592 190.278 49.592C188.784 49.592 187.6 50.104 186.726 51.128C185.872 52.1307 185.446 53.528 185.446 55.32C185.446 57.0907 185.894 58.584 186.79 59.8C187.686 61.016 188.763 61.624 190.022 61.624C191.302 61.624 192.507 61.016 193.638 59.8C193.595 54.296 193.574 51.2133 193.574 50.552ZM206.362 47.8C207.855 47.8 209.06 48.2267 209.978 49.08C210.916 49.912 211.386 50.8187 211.386 51.8C211.386 52.7813 211.236 53.5493 210.938 54.104C210.639 54.6587 210.244 55.096 209.754 55.416C209.284 55.736 208.602 55.9813 207.706 56.152C206.34 56.408 204.292 56.536 201.562 56.536C201.732 58.072 202.191 59.288 202.938 60.184C203.706 61.08 204.836 61.528 206.33 61.528C207.823 61.528 208.879 60.9733 209.498 59.864C210.351 60.2053 210.778 60.6747 210.778 61.272C210.778 61.8693 210.287 62.36 209.306 62.744C208.346 63.128 207.268 63.32 206.074 63.32C204.068 63.32 202.426 62.6907 201.146 61.432C199.866 60.152 199.226 58.2427 199.226 55.704C199.226 53.144 199.93 51.192 201.338 49.848C202.767 48.4827 204.442 47.8 206.362 47.8ZM206.234 49.56C204.954 49.56 203.855 49.9973 202.938 50.872C202.042 51.7467 201.572 53.1013 201.53 54.936C204.58 54.936 206.607 54.712 207.61 54.264C208.036 54.072 208.399 53.7947 208.698 53.432C209.018 53.0693 209.178 52.5893 209.178 51.992C209.178 51.3733 208.89 50.8187 208.314 50.328C207.759 49.816 207.066 49.56 206.234 49.56ZM224.113 47.8C224.902 47.8 225.297 48.2053 225.297 49.016C225.297 50.4667 224.764 52.6427 223.697 55.544C222.652 58.424 221.574 60.5253 220.465 61.848C220.06 62.3387 219.718 62.6693 219.441 62.84C219.164 63.0107 218.854 63.096 218.513 63.096C218.193 63.096 217.873 63.064 217.553 63C217.062 60.5467 216.252 57.7733 215.121 54.68C213.99 51.5653 213.03 49.6133 212.241 48.824C212.881 48.248 213.468 47.96 214.001 47.96C214.534 47.96 214.961 48.3333 215.281 49.08C215.729 50.104 216.39 51.864 217.265 54.36C218.14 56.856 218.79 58.968 219.217 60.696C220.092 59.5653 220.966 57.7733 221.841 55.32C222.737 52.8667 223.185 50.744 223.185 48.952C223.185 48.6107 223.153 48.28 223.089 47.96C223.409 47.8533 223.75 47.8 224.113 47.8ZM234.495 47.8C235.989 47.8 237.194 48.2267 238.111 49.08C239.05 49.912 239.519 50.8187 239.519 51.8C239.519 52.7813 239.37 53.5493 239.071 54.104C238.773 54.6587 238.378 55.096 237.887 55.416C237.418 55.736 236.735 55.9813 235.839 56.152C234.474 56.408 232.426 56.536 229.695 56.536C229.866 58.072 230.325 59.288 231.071 60.184C231.839 61.08 232.97 61.528 234.463 61.528C235.957 61.528 237.013 60.9733 237.631 59.864C238.485 60.2053 238.911 60.6747 238.911 61.272C238.911 61.8693 238.421 62.36 237.439 62.744C236.479 63.128 235.402 63.32 234.207 63.32C232.202 63.32 230.559 62.6907 229.279 61.432C227.999 60.152 227.359 58.2427 227.359 55.704C227.359 53.144 228.063 51.192 229.471 49.848C230.901 48.4827 232.575 47.8 234.495 47.8ZM234.367 49.56C233.087 49.56 231.989 49.9973 231.071 50.872C230.175 51.7467 229.706 53.1013 229.663 54.936C232.714 54.936 234.741 54.712 235.743 54.264C236.17 54.072 236.533 53.7947 236.831 53.432C237.151 53.0693 237.311 52.5893 237.311 51.992C237.311 51.3733 237.023 50.8187 236.447 50.328C235.893 49.816 235.199 49.56 234.367 49.56ZM242.583 61.432L242.647 52.28V48.568C242.647 43.5333 242.561 40.4507 242.391 39.32C242.732 39.256 243.105 39.224 243.511 39.224C244.492 39.224 244.983 39.6293 244.983 40.44C244.983 40.5253 244.972 41.0907 244.951 42.136C244.823 46.0187 244.759 49.1547 244.759 51.544V56.536C244.759 59.3733 244.961 61.4747 245.367 62.84C244.983 63.0107 244.535 63.096 244.023 63.096C243.511 63.096 243.137 62.968 242.903 62.712C242.689 62.456 242.583 62.0293 242.583 61.432ZM262.163 55.576C262.163 57.9227 261.523 59.8 260.243 61.208C258.963 62.616 257.278 63.32 255.187 63.32C253.118 63.32 251.443 62.616 250.163 61.208C248.883 59.8 248.243 57.9227 248.243 55.576C248.243 53.2293 248.883 51.352 250.163 49.944C251.443 48.5147 253.118 47.8 255.187 47.8C257.278 47.8 258.963 48.5147 260.243 49.944C261.523 51.352 262.163 53.2293 262.163 55.576ZM255.187 61.528C256.68 61.528 257.843 61.0267 258.675 60.024C259.507 59.0213 259.923 57.6453 259.923 55.896C259.923 54.1467 259.496 52.664 258.643 51.448C257.79 50.2107 256.627 49.592 255.155 49.592C253.683 49.592 252.531 50.104 251.699 51.128C250.888 52.1307 250.483 53.5067 250.483 55.256C250.483 57.0053 250.899 58.488 251.731 59.704C252.563 60.92 253.715 61.528 255.187 61.528ZM265.568 69.272L265.664 55.032C265.664 51.6613 265.461 49.4107 265.056 48.28C265.44 48.1093 265.856 48.024 266.304 48.024C267.221 48.024 267.68 48.5573 267.68 49.624C269.301 48.408 270.944 47.8 272.608 47.8C274.293 47.8 275.648 48.376 276.672 49.528C277.717 50.6587 278.24 52.3867 278.24 54.712C278.24 58.04 277.226 60.4933 275.2 62.072C274.133 62.904 272.906 63.32 271.52 63.32C270.154 63.32 268.906 62.9573 267.776 62.232C267.776 65.8587 267.85 68.0987 268 68.952C268.149 69.8267 268.288 70.456 268.416 70.84C268.032 71.0107 267.562 71.096 267.008 71.096C266.474 71.096 266.101 70.9573 265.888 70.68C265.674 70.4027 265.568 69.9333 265.568 69.272ZM267.84 60.568C268.821 61.208 270.101 61.528 271.68 61.528C272.64 61.528 273.461 61.208 274.144 60.568C275.36 59.3733 275.968 57.5813 275.968 55.192C275.968 53.272 275.594 51.864 274.848 50.968C274.122 50.0507 273.109 49.592 271.808 49.592C270.506 49.592 269.162 50.1787 267.776 51.352C267.818 56.0453 267.84 59.1173 267.84 60.568ZM287.763 47.8C289.256 47.8 290.462 48.2267 291.379 49.08C292.318 49.912 292.787 50.8187 292.787 51.8C292.787 52.7813 292.638 53.5493 292.339 54.104C292.04 54.6587 291.646 55.096 291.155 55.416C290.686 55.736 290.003 55.9813 289.107 56.152C287.742 56.408 285.694 56.536 282.963 56.536C283.134 58.072 283.592 59.288 284.339 60.184C285.107 61.08 286.238 61.528 287.731 61.528C289.224 61.528 290.28 60.9733 290.899 59.864C291.752 60.2053 292.179 60.6747 292.179 61.272C292.179 61.8693 291.688 62.36 290.707 62.744C289.747 63.128 288.67 63.32 287.475 63.32C285.47 63.32 283.827 62.6907 282.547 61.432C281.267 60.152 280.627 58.2427 280.627 55.704C280.627 53.144 281.331 51.192 282.739 49.848C284.168 48.4827 285.843 47.8 287.763 47.8ZM287.635 49.56C286.355 49.56 285.256 49.9973 284.339 50.872C283.443 51.7467 282.974 53.1013 282.931 54.936C285.982 54.936 288.008 54.712 289.011 54.264C289.438 54.072 289.8 53.7947 290.099 53.432C290.419 53.0693 290.579 52.5893 290.579 51.992C290.579 51.3733 290.291 50.8187 289.715 50.328C289.16 49.816 288.467 49.56 287.635 49.56ZM295.818 61.272L295.882 55.608C295.882 52.5573 295.807 50.0613 295.658 48.12C295.999 48.056 296.362 48.024 296.746 48.024C297.663 48.024 298.122 48.4293 298.122 49.24C298.122 49.2827 298.111 49.432 298.09 49.688C298.09 49.9227 298.09 50.1467 298.09 50.36C298.517 49.6987 299.082 49.112 299.786 48.6C300.511 48.0667 301.173 47.8 301.77 47.8C302.922 47.8 303.498 48.216 303.498 49.048C303.498 49.4533 303.285 49.9333 302.858 50.488C302.389 50.0827 301.866 49.88 301.29 49.88C300.714 49.88 300.127 50.1147 299.53 50.584C298.933 51.0533 298.431 51.672 298.026 52.44C298.005 53.1653 297.994 54.744 297.994 57.176C297.994 59.608 298.197 61.496 298.602 62.84C298.218 63.0107 297.759 63.096 297.226 63.096C296.714 63.096 296.351 62.9573 296.138 62.68C295.925 62.4027 295.818 61.9333 295.818 61.272ZM306.776 63.704C306.776 62.6587 306.253 62.0293 305.208 61.816C304.995 61.4747 304.888 61.1013 304.888 60.696C304.888 60.2907 305.069 59.9387 305.432 59.64C305.795 59.32 306.243 59.16 306.776 59.16C307.309 59.16 307.768 59.4053 308.152 59.896C308.557 60.3867 308.76 61.2293 308.76 62.424C308.76 63.5973 308.387 64.7493 307.64 65.88C306.915 67.0107 306.051 67.576 305.048 67.576C304.493 67.576 304.216 67.256 304.216 66.616C304.216 66.4453 304.227 66.3173 304.248 66.232H304.408C305.091 66.232 305.656 65.976 306.104 65.464C306.552 64.952 306.776 64.3653 306.776 63.704ZM76.6005 83.496C78.1578 82.3653 79.7898 81.8 81.4965 81.8C83.2032 81.8 84.5685 82.408 85.5925 83.624C86.6378 84.8187 87.1605 86.6 87.1605 88.968C87.1605 91.336 86.5845 93.32 85.4325 94.92C84.2805 96.52 82.5738 97.32 80.3125 97.32C78.0512 97.32 76.0672 96.5947 74.3605 95.144C74.5098 93.864 74.5845 91.9227 74.5845 89.32C74.5845 86.7173 74.5312 83.6027 74.4245 79.976C74.3178 76.3493 74.2005 74.1307 74.0725 73.32C74.3285 73.256 74.7125 73.224 75.2245 73.224C76.1845 73.224 76.6645 73.6293 76.6645 74.44C76.6645 74.7173 76.6538 76.1253 76.6325 78.664C76.6112 81.2027 76.6005 82.8133 76.6005 83.496ZM76.6325 85.288L76.6645 90.024C76.6645 91.7307 76.6325 93.0107 76.5685 93.864C77.8272 94.9733 79.1818 95.528 80.6325 95.528C82.1045 95.528 83.1818 94.92 83.8645 93.704C84.5685 92.4667 84.9205 90.952 84.9205 89.16C84.9205 87.3467 84.5365 85.9707 83.7685 85.032C83.0005 84.072 82.0405 83.592 80.8885 83.592C79.3525 83.592 77.9338 84.1573 76.6325 85.288ZM100.466 87.016L100.402 91.336C100.402 93.7893 100.605 95.624 101.01 96.84C100.669 97.0107 100.253 97.096 99.7625 97.096C99.2932 97.096 98.9625 96.9893 98.7705 96.776C98.5785 96.5413 98.4505 96.1787 98.3865 95.688C97.0638 96.776 95.6985 97.32 94.2905 97.32C91.0052 97.32 89.3625 95.816 89.3625 92.808C89.3625 91.72 89.6185 90.92 90.1305 90.408C90.6425 89.896 91.3465 89.512 92.2425 89.256C93.8425 88.8293 95.8692 88.5413 98.3225 88.392C98.3225 86.5787 98.0985 85.3307 97.6505 84.648C97.2025 83.944 96.2532 83.592 94.8025 83.592C94.2052 83.592 93.5865 83.784 92.9465 84.168C92.3065 84.552 91.8265 85.1067 91.5065 85.832C90.5252 85.64 90.0345 85.2133 90.0345 84.552C90.0345 83.72 90.5465 83.0587 91.5705 82.568C92.5945 82.056 93.9065 81.8 95.5065 81.8C97.1065 81.8 98.3332 82.184 99.1865 82.952C100.04 83.6987 100.466 85.0533 100.466 87.016ZM98.2905 90.024C97.6718 90.088 97.2025 90.1413 96.8825 90.184C96.5838 90.2267 96.1678 90.28 95.6345 90.344C95.1225 90.408 94.7385 90.472 94.4825 90.536C94.2265 90.6 93.9065 90.6853 93.5225 90.792C93.1598 90.8987 92.8825 91.016 92.6905 91.144C92.5198 91.272 92.3385 91.4107 92.1465 91.56C91.7838 91.8587 91.6025 92.2747 91.6025 92.808C91.6025 93.768 91.8798 94.4827 92.4345 94.952C92.9892 95.4 93.6932 95.624 94.5465 95.624C95.9972 95.624 97.2238 95.144 98.2265 94.184C98.2052 93.8853 98.1945 93.3413 98.1945 92.552C98.1945 91.7627 98.2265 90.92 98.2905 90.024ZM112.206 85.672C111.972 85.0533 111.492 84.552 110.766 84.168C110.041 83.784 109.294 83.592 108.526 83.592C107.78 83.592 107.14 83.7947 106.606 84.2C106.073 84.584 105.806 85.1173 105.806 85.8C105.806 86.4827 106.084 87.0053 106.638 87.368C107.214 87.7307 107.908 88.008 108.718 88.2C109.529 88.392 110.34 88.616 111.15 88.872C111.961 89.1067 112.644 89.544 113.198 90.184C113.774 90.824 114.062 91.656 114.062 92.68C114.062 94.1947 113.518 95.3467 112.43 96.136C111.342 96.9253 110.094 97.32 108.686 97.32C107.3 97.32 106.094 97.0747 105.07 96.584C104.068 96.0933 103.566 95.4853 103.566 94.76C103.566 94.1413 104.046 93.6933 105.006 93.416C105.241 94.0987 105.742 94.6213 106.51 94.984C107.3 95.3467 108.153 95.528 109.07 95.528C109.988 95.528 110.724 95.3253 111.278 94.92C111.854 94.5147 112.142 93.9387 112.142 93.192C112.142 92.4453 111.854 91.9013 111.278 91.56C110.724 91.2187 110.041 90.9627 109.23 90.792C108.42 90.6 107.609 90.3867 106.798 90.152C105.988 89.896 105.294 89.4267 104.718 88.744C104.164 88.0613 103.886 87.1333 103.886 85.96C103.886 84.7653 104.43 83.7733 105.518 82.984C106.628 82.1947 107.78 81.8 108.974 81.8C110.169 81.8 111.246 82.024 112.206 82.472C113.166 82.92 113.646 83.5067 113.646 84.232C113.646 84.9573 113.166 85.4373 112.206 85.672ZM123.476 81.8C124.969 81.8 126.175 82.2267 127.092 83.08C128.031 83.912 128.5 84.8187 128.5 85.8C128.5 86.7813 128.351 87.5493 128.052 88.104C127.753 88.6587 127.359 89.096 126.868 89.416C126.399 89.736 125.716 89.9813 124.82 90.152C123.455 90.408 121.407 90.536 118.676 90.536C118.847 92.072 119.305 93.288 120.052 94.184C120.82 95.08 121.951 95.528 123.444 95.528C124.937 95.528 125.993 94.9733 126.612 93.864C127.465 94.2053 127.892 94.6747 127.892 95.272C127.892 95.8693 127.401 96.36 126.42 96.744C125.46 97.128 124.383 97.32 123.188 97.32C121.183 97.32 119.54 96.6907 118.26 95.432C116.98 94.152 116.34 92.2427 116.34 89.704C116.34 87.144 117.044 85.192 118.452 83.848C119.881 82.4827 121.556 81.8 123.476 81.8ZM123.348 83.56C122.068 83.56 120.969 83.9973 120.052 84.872C119.156 85.7467 118.687 87.1013 118.644 88.936C121.695 88.936 123.721 88.712 124.724 88.264C125.151 88.072 125.513 87.7947 125.812 87.432C126.132 87.0693 126.292 86.5893 126.292 85.992C126.292 85.3733 126.004 84.8187 125.428 84.328C124.873 83.816 124.18 83.56 123.348 83.56ZM143.723 74.44L143.435 89.864C143.435 93.4267 143.638 95.752 144.043 96.84C143.702 97.0107 143.297 97.096 142.827 97.096C141.931 97.096 141.462 96.5627 141.419 95.496C140.139 96.712 138.689 97.32 137.067 97.32C135.467 97.32 134.038 96.5947 132.779 95.144C131.521 93.672 130.891 91.7947 130.891 89.512C130.891 87.2293 131.542 85.3733 132.843 83.944C134.166 82.5147 135.755 81.8 137.611 81.8C138.891 81.8 140.129 82.1627 141.323 82.888C141.366 81.5227 141.387 79.976 141.387 78.248C141.387 76.4987 141.302 74.856 141.131 73.32C141.473 73.256 141.857 73.224 142.283 73.224C143.243 73.224 143.723 73.6293 143.723 74.44ZM141.259 84.552C140.129 83.912 139.03 83.592 137.963 83.592C136.47 83.592 135.286 84.104 134.411 85.128C133.558 86.1307 133.131 87.528 133.131 89.32C133.131 91.0907 133.579 92.584 134.475 93.8C135.371 95.016 136.449 95.624 137.707 95.624C138.987 95.624 140.193 95.016 141.323 93.8C141.281 88.296 141.259 85.2133 141.259 84.552ZM154.638 95.272L154.702 89.608C154.702 86.5573 154.628 84.0613 154.478 82.12C154.82 82.056 155.182 82.024 155.566 82.024C156.569 82.024 157.07 82.4293 157.07 83.24C157.07 83.3467 157.049 83.7733 157.006 84.52C156.878 86.8027 156.814 89.096 156.814 91.4C156.814 93.6827 157.017 95.496 157.422 96.84C157.038 97.0107 156.58 97.096 156.046 97.096C155.534 97.096 155.172 96.9573 154.958 96.68C154.745 96.4027 154.638 95.9333 154.638 95.272ZM157.358 78.632C157.358 79.1013 157.188 79.5067 156.846 79.848C156.505 80.168 156.11 80.328 155.662 80.328C155.236 80.328 154.862 80.168 154.542 79.848C154.222 79.528 154.062 79.1227 154.062 78.632C154.062 78.1413 154.233 77.736 154.574 77.416C154.916 77.0747 155.3 76.904 155.726 76.904C156.174 76.904 156.558 77.0747 156.878 77.416C157.198 77.736 157.358 78.1413 157.358 78.632ZM170.571 95.464L170.763 87.176C170.763 85.9813 170.464 85.0853 169.867 84.488C169.291 83.8907 168.544 83.592 167.627 83.592C166.176 83.592 164.747 84.1787 163.339 85.352C163.381 88.2533 163.403 90.5573 163.403 92.264C163.403 93.9493 163.467 95.5173 163.595 96.968C163.253 97.032 162.891 97.064 162.507 97.064C161.547 97.064 161.067 96.6587 161.067 95.848C161.067 95.7627 161.088 94.984 161.131 93.512C161.195 92.0187 161.227 90.536 161.227 89.064C161.227 85.5653 161.024 83.304 160.619 82.28C161.045 82.1093 161.429 82.024 161.771 82.024C162.752 82.024 163.243 82.5573 163.243 83.624C163.883 83.1333 164.704 82.7067 165.707 82.344C166.709 81.9813 167.765 81.8 168.875 81.8C169.984 81.8 170.933 82.1627 171.723 82.888C172.533 83.592 172.939 84.7333 172.939 86.312L172.843 92.008C172.843 93.9707 173.024 95.5813 173.387 96.84C172.96 97.0107 172.501 97.096 172.011 97.096C171.541 97.096 171.179 96.9787 170.923 96.744C170.688 96.488 170.571 96.0613 170.571 95.464ZM184.363 95.272L184.427 89.608V81.544C184.427 79.1547 184.225 77.2773 183.819 75.912C184.502 75.7413 185.121 75.656 185.675 75.656C186.571 75.656 187.329 76.168 187.947 77.192C188.779 78.6427 189.622 80.4133 190.475 82.504C191.329 84.5947 191.99 86.3653 192.459 87.816C192.95 89.2453 193.633 91.3253 194.507 94.056C195.169 91.4107 196.054 88.552 197.163 85.48C198.294 82.408 199.553 79.6453 200.939 77.192C201.515 76.168 202.294 75.656 203.275 75.656C204.001 75.656 204.598 75.7413 205.067 75.912C204.683 77.192 204.491 79.5707 204.491 83.048V90.504C204.491 93.384 204.694 95.496 205.099 96.84C204.715 97.0107 204.214 97.096 203.595 97.096C202.977 97.096 202.561 96.9573 202.347 96.68C202.134 96.4027 202.027 96.0613 202.027 95.656C202.027 95.2507 202.038 94.376 202.059 93.032C202.081 89 202.091 84.3707 202.091 79.144C200.129 83.0907 197.985 89.0213 195.659 96.936C195.403 97.0213 195.115 97.064 194.795 97.064C193.963 97.064 193.43 96.7867 193.195 96.232C192.683 95.08 191.713 92.52 190.283 88.552C188.875 84.5627 187.617 81.448 186.507 79.208V90.504C186.507 93.384 186.71 95.496 187.115 96.84C186.731 97.0107 186.283 97.096 185.771 97.096C185.259 97.096 184.897 96.9573 184.683 96.68C184.47 96.4027 184.363 95.9333 184.363 95.272ZM222.087 89.576C222.087 91.9227 221.447 93.8 220.167 95.208C218.887 96.616 217.202 97.32 215.111 97.32C213.042 97.32 211.367 96.616 210.087 95.208C208.807 93.8 208.167 91.9227 208.167 89.576C208.167 87.2293 208.807 85.352 210.087 83.944C211.367 82.5147 213.042 81.8 215.111 81.8C217.202 81.8 218.887 82.5147 220.167 83.944C221.447 85.352 222.087 87.2293 222.087 89.576ZM215.111 95.528C216.605 95.528 217.767 95.0267 218.599 94.024C219.431 93.0213 219.847 91.6453 219.847 89.896C219.847 88.1467 219.421 86.664 218.567 85.448C217.714 84.2107 216.551 83.592 215.079 83.592C213.607 83.592 212.455 84.104 211.623 85.128C210.813 86.1307 210.407 87.5067 210.407 89.256C210.407 91.0053 210.823 92.488 211.655 93.704C212.487 94.92 213.639 95.528 215.111 95.528ZM232.98 85.672C232.745 85.0533 232.265 84.552 231.54 84.168C230.815 83.784 230.068 83.592 229.3 83.592C228.553 83.592 227.913 83.7947 227.38 84.2C226.847 84.584 226.58 85.1173 226.58 85.8C226.58 86.4827 226.857 87.0053 227.412 87.368C227.988 87.7307 228.681 88.008 229.492 88.2C230.303 88.392 231.113 88.616 231.924 88.872C232.735 89.1067 233.417 89.544 233.972 90.184C234.548 90.824 234.836 91.656 234.836 92.68C234.836 94.1947 234.292 95.3467 233.204 96.136C232.116 96.9253 230.868 97.32 229.46 97.32C228.073 97.32 226.868 97.0747 225.844 96.584C224.841 96.0933 224.34 95.4853 224.34 94.76C224.34 94.1413 224.82 93.6933 225.78 93.416C226.015 94.0987 226.516 94.6213 227.284 94.984C228.073 95.3467 228.927 95.528 229.844 95.528C230.761 95.528 231.497 95.3253 232.052 94.92C232.628 94.5147 232.916 93.9387 232.916 93.192C232.916 92.4453 232.628 91.9013 232.052 91.56C231.497 91.2187 230.815 90.9627 230.004 90.792C229.193 90.6 228.383 90.3867 227.572 90.152C226.761 89.896 226.068 89.4267 225.492 88.744C224.937 88.0613 224.66 87.1333 224.66 85.96C224.66 84.7653 225.204 83.7733 226.292 82.984C227.401 82.1947 228.553 81.8 229.748 81.8C230.943 81.8 232.02 82.024 232.98 82.472C233.94 82.92 234.42 83.5067 234.42 84.232C234.42 84.9573 233.94 85.4373 232.98 85.672ZM244.026 95.528C244.666 95.528 245.316 95.3893 245.978 95.112C246.639 94.8347 247.108 94.4187 247.386 93.864C248.239 94.2053 248.666 94.632 248.666 95.144C248.666 95.848 248.175 96.392 247.194 96.776C246.234 97.1387 245.146 97.32 243.93 97.32C241.988 97.32 240.367 96.6907 239.066 95.432C237.764 94.152 237.114 92.2533 237.114 89.736C237.114 88.392 237.327 87.1973 237.754 86.152C238.18 85.0853 238.746 84.2427 239.45 83.624C240.879 82.408 242.447 81.8 244.154 81.8C245.242 81.8 246.276 82.0453 247.258 82.536C248.239 83.0267 248.73 83.72 248.73 84.616C248.73 85.384 248.218 85.8427 247.194 85.992C246.98 85.224 246.522 84.6373 245.818 84.232C245.135 83.8053 244.41 83.592 243.642 83.592C242.447 83.592 241.434 84.1253 240.602 85.192C239.791 86.2373 239.386 87.72 239.386 89.64C239.386 91.56 239.812 93.0213 240.666 94.024C241.54 95.0267 242.66 95.528 244.026 95.528ZM264.866 89.576C264.866 91.9227 264.226 93.8 262.946 95.208C261.666 96.616 259.981 97.32 257.89 97.32C255.821 97.32 254.146 96.616 252.866 95.208C251.586 93.8 250.946 91.9227 250.946 89.576C250.946 87.2293 251.586 85.352 252.866 83.944C254.146 82.5147 255.821 81.8 257.89 81.8C259.981 81.8 261.666 82.5147 262.946 83.944C264.226 85.352 264.866 87.2293 264.866 89.576ZM257.89 95.528C259.384 95.528 260.546 95.0267 261.378 94.024C262.21 93.0213 262.626 91.6453 262.626 89.896C262.626 88.1467 262.2 86.664 261.346 85.448C260.493 84.2107 259.33 83.592 257.858 83.592C256.386 83.592 255.234 84.104 254.402 85.128C253.592 86.1307 253.186 87.5067 253.186 89.256C253.186 91.0053 253.602 92.488 254.434 93.704C255.266 94.92 256.418 95.528 257.89 95.528ZM285.743 81.8C286.532 81.8 286.927 82.1947 286.927 82.984C286.927 83.7733 286.735 84.8933 286.351 86.344C285.988 87.7947 285.54 89.224 285.007 90.632C283.641 94.0027 282.415 96.072 281.327 96.84C281.071 97.0107 280.783 97.096 280.463 97.096C280.164 97.096 279.855 97.064 279.535 97C278.98 94.184 278.137 91.1333 277.007 87.848C275.833 91.56 274.607 94.2267 273.327 95.848C272.921 96.3387 272.591 96.6693 272.335 96.84C272.1 97.0107 271.823 97.096 271.503 97.096C271.204 97.096 270.895 97.064 270.575 97C270.105 94.5467 269.359 91.7627 268.335 88.648C267.311 85.5333 266.447 83.592 265.743 82.824C266.383 82.248 266.969 81.96 267.503 81.96C268.036 81.96 268.463 82.3333 268.783 83.08C269.167 84.04 269.743 85.7787 270.511 88.296C271.279 90.8133 271.855 92.9467 272.239 94.696C273.028 93.5653 273.828 91.7733 274.639 89.32C275.449 86.8667 275.855 84.7547 275.855 82.984C275.855 82.6213 275.823 82.28 275.759 81.96C276.079 81.8533 276.42 81.8 276.783 81.8C277.572 81.8 277.967 82.2267 277.967 83.08C277.967 83.9333 277.956 84.4347 277.935 84.584C278.425 85.3947 278.991 86.8133 279.631 88.84C280.271 90.8667 280.793 92.8187 281.199 94.696C281.988 93.5653 282.788 91.7733 283.599 89.32C284.409 86.8667 284.815 84.7547 284.815 82.984C284.815 82.6213 284.783 82.28 284.719 81.96C285.039 81.8533 285.38 81.8 285.743 81.8ZM292.442 96.744C292.08 97.128 291.632 97.32 291.098 97.32C290.565 97.32 290.106 97.128 289.722 96.744C289.338 96.36 289.146 95.88 289.146 95.304C289.146 94.728 289.338 94.248 289.722 93.864C290.106 93.4587 290.565 93.256 291.098 93.256C291.632 93.256 292.08 93.4587 292.442 93.864C292.826 94.248 293.018 94.728 293.018 95.304C293.018 95.88 292.826 96.36 292.442 96.744ZM40.5433 129.272L40.6073 123.608V117.208C40.6073 114.2 40.5326 111.725 40.3833 109.784C40.7459 109.72 41.1833 109.688 41.6953 109.688C42.7406 109.688 43.2633 110.093 43.2633 110.904C43.2633 111.032 43.2419 111.459 43.1993 112.184C43.0713 114.403 43.0073 116.365 43.0073 118.072V124.504C43.0073 127.384 43.2099 129.496 43.6153 130.84C43.2313 131.011 42.7299 131.096 42.1113 131.096C41.4926 131.096 41.0766 130.957 40.8633 130.68C40.6499 130.403 40.5433 129.933 40.5433 129.272ZM53.8608 129.432L53.9248 120.28V116.568C53.9248 111.533 53.8394 108.451 53.6688 107.32C54.0101 107.256 54.3834 107.224 54.7888 107.224C55.7701 107.224 56.2608 107.629 56.2608 108.44C56.2608 108.525 56.2501 109.091 56.2288 110.136C56.1008 114.019 56.0368 117.155 56.0368 119.544V124.536C56.0368 127.373 56.2394 129.475 56.6448 130.84C56.2608 131.011 55.8128 131.096 55.3008 131.096C54.7888 131.096 54.4154 130.968 54.1808 130.712C53.9674 130.456 53.8608 130.029 53.8608 129.432ZM60.3533 129.272L60.4173 123.608C60.4173 120.557 60.3426 118.061 60.1933 116.12C60.5346 116.056 60.8973 116.024 61.2813 116.024C62.2839 116.024 62.7853 116.429 62.7853 117.24C62.7853 117.347 62.7639 117.773 62.7213 118.52C62.5933 120.803 62.5293 123.096 62.5293 125.4C62.5293 127.683 62.7319 129.496 63.1373 130.84C62.7533 131.011 62.2946 131.096 61.7613 131.096C61.2493 131.096 60.8866 130.957 60.6733 130.68C60.4599 130.403 60.3533 129.933 60.3533 129.272ZM63.0733 112.632C63.0733 113.101 62.9026 113.507 62.5613 113.848C62.2199 114.168 61.8253 114.328 61.3773 114.328C60.9506 114.328 60.5773 114.168 60.2573 113.848C59.9373 113.528 59.7773 113.123 59.7773 112.632C59.7773 112.141 59.9479 111.736 60.2893 111.416C60.6306 111.075 61.0146 110.904 61.4413 110.904C61.8893 110.904 62.2733 111.075 62.5933 111.416C62.9133 111.736 63.0733 112.141 63.0733 112.632ZM66.5258 129.432L66.5898 120.28V116.568C66.5898 111.533 66.5044 108.451 66.3338 107.32C66.6751 107.256 67.0484 107.224 67.4538 107.224C68.4351 107.224 68.9258 107.629 68.9258 108.44C68.9258 108.525 68.9151 109.016 68.8938 109.912C68.7658 113.197 68.7018 115.875 68.7018 117.944C70.2164 116.515 71.8484 115.8 73.5978 115.8C74.9844 115.8 76.0404 116.184 76.7658 116.952C77.4911 117.699 77.8538 118.68 77.8538 119.896C77.8538 121.091 77.4484 122.168 76.6378 123.128C75.8484 124.067 74.7391 124.611 73.3098 124.76C74.4404 126.637 75.2831 127.875 75.8378 128.472C76.4138 129.048 77.0324 129.336 77.6938 129.336C78.0351 129.336 78.3124 129.293 78.5258 129.208C78.7178 129.592 78.8138 129.944 78.8138 130.264C78.8138 130.563 78.5898 130.808 78.1418 131C77.6938 131.213 77.2671 131.32 76.8618 131.32C76.0298 131.32 75.2618 130.936 74.5578 130.168C73.8538 129.4 73.2564 128.611 72.7658 127.8C72.2751 126.968 71.8698 126.285 71.5498 125.752C71.2298 125.219 71.0164 124.856 70.9098 124.664C70.3551 124.6 70.0778 124.376 70.0778 123.992C70.0778 123.757 70.1311 123.501 70.2378 123.224C70.9204 123.373 71.4644 123.448 71.8698 123.448C73.0431 123.448 73.9498 123.128 74.5898 122.488C75.2298 121.827 75.5498 121.101 75.5498 120.312C75.5498 119.523 75.3258 118.872 74.8778 118.36C74.4511 117.848 73.8644 117.592 73.1178 117.592C72.3711 117.592 71.5924 117.816 70.7818 118.264C69.9711 118.691 69.2778 119.235 68.7018 119.896V124.536C68.7018 127.373 68.9044 129.475 69.3098 130.84C68.9258 131.011 68.4778 131.096 67.9658 131.096C67.4538 131.096 67.0804 130.968 66.8458 130.712C66.6324 130.456 66.5258 130.029 66.5258 129.432ZM87.7598 115.8C89.2531 115.8 90.4584 116.227 91.3758 117.08C92.3144 117.912 92.7838 118.819 92.7838 119.8C92.7838 120.781 92.6344 121.549 92.3358 122.104C92.0371 122.659 91.6424 123.096 91.1518 123.416C90.6824 123.736 89.9998 123.981 89.1038 124.152C87.7384 124.408 85.6904 124.536 82.9598 124.536C83.1304 126.072 83.5891 127.288 84.3358 128.184C85.1038 129.08 86.2344 129.528 87.7278 129.528C89.2211 129.528 90.2771 128.973 90.8958 127.864C91.7491 128.205 92.1758 128.675 92.1758 129.272C92.1758 129.869 91.6851 130.36 90.7038 130.744C89.7438 131.128 88.6664 131.32 87.4718 131.32C85.4664 131.32 83.8238 130.691 82.5438 129.432C81.2638 128.152 80.6238 126.243 80.6238 123.704C80.6238 121.144 81.3278 119.192 82.7358 117.848C84.1651 116.483 85.8398 115.8 87.7598 115.8ZM87.6318 117.56C86.3518 117.56 85.2531 117.997 84.3358 118.872C83.4398 119.747 82.9704 121.101 82.9278 122.936C85.9784 122.936 88.0051 122.712 89.0078 122.264C89.4344 122.072 89.7971 121.795 90.0958 121.432C90.4158 121.069 90.5758 120.589 90.5758 119.992C90.5758 119.373 90.2878 118.819 89.7118 118.328C89.1571 117.816 88.4638 117.56 87.6318 117.56ZM103.702 117.848C103.638 117.848 102.646 117.923 100.726 118.072C100.662 117.88 100.63 117.581 100.63 117.176C100.63 116.749 100.79 116.472 101.11 116.344C101.43 116.195 101.974 116.12 102.742 116.12H103.638C103.595 114.691 103.531 113.496 103.446 112.536C103.766 112.472 104.118 112.44 104.502 112.44C105.526 112.44 106.038 112.845 106.038 113.656C106.038 113.955 105.995 114.787 105.91 116.152C108.619 116.152 110.411 116.099 111.286 115.992C111.371 116.163 111.414 116.44 111.414 116.824C111.414 117.187 111.297 117.443 111.062 117.592C110.849 117.741 110.433 117.827 109.814 117.848C109.217 117.869 107.894 117.88 105.846 117.88C105.803 120.184 105.782 122.435 105.782 124.632C105.782 126.808 105.985 128.184 106.39 128.76C106.817 129.336 107.489 129.624 108.406 129.624C109.345 129.624 110.134 129.304 110.774 128.664C111.158 129.069 111.35 129.475 111.35 129.88C111.35 130.285 111.073 130.627 110.518 130.904C109.963 131.181 109.291 131.32 108.502 131.32C106.731 131.32 105.473 130.808 104.726 129.784C104.001 128.76 103.638 127.235 103.638 125.208C103.681 121.347 103.702 118.893 103.702 117.848ZM126.416 123.576C126.416 125.923 125.776 127.8 124.496 129.208C123.216 130.616 121.531 131.32 119.44 131.32C117.371 131.32 115.696 130.616 114.416 129.208C113.136 127.8 112.496 125.923 112.496 123.576C112.496 121.229 113.136 119.352 114.416 117.944C115.696 116.515 117.371 115.8 119.44 115.8C121.531 115.8 123.216 116.515 124.496 117.944C125.776 119.352 126.416 121.229 126.416 123.576ZM119.44 129.528C120.934 129.528 122.096 129.027 122.928 128.024C123.76 127.021 124.176 125.645 124.176 123.896C124.176 122.147 123.75 120.664 122.896 119.448C122.043 118.211 120.88 117.592 119.408 117.592C117.936 117.592 116.784 118.104 115.952 119.128C115.142 120.131 114.736 121.507 114.736 123.256C114.736 125.005 115.152 126.488 115.984 127.704C116.816 128.92 117.968 129.528 119.44 129.528ZM142.636 129.528C143.276 129.528 143.926 129.389 144.588 129.112C145.249 128.835 145.718 128.419 145.996 127.864C146.849 128.205 147.276 128.632 147.276 129.144C147.276 129.848 146.785 130.392 145.804 130.776C144.844 131.139 143.756 131.32 142.54 131.32C140.598 131.32 138.977 130.691 137.676 129.432C136.374 128.152 135.724 126.253 135.724 123.736C135.724 122.392 135.937 121.197 136.364 120.152C136.79 119.085 137.356 118.243 138.06 117.624C139.489 116.408 141.057 115.8 142.764 115.8C143.852 115.8 144.886 116.045 145.868 116.536C146.849 117.027 147.34 117.72 147.34 118.616C147.34 119.384 146.828 119.843 145.804 119.992C145.59 119.224 145.132 118.637 144.428 118.232C143.745 117.805 143.02 117.592 142.252 117.592C141.057 117.592 140.044 118.125 139.212 119.192C138.401 120.237 137.996 121.72 137.996 123.64C137.996 125.56 138.422 127.021 139.276 128.024C140.15 129.027 141.27 129.528 142.636 129.528ZM150.196 129.272L150.26 123.608C150.26 120.557 150.186 118.061 150.036 116.12C150.378 116.056 150.74 116.024 151.124 116.024C152.042 116.024 152.5 116.429 152.5 117.24C152.5 117.283 152.49 117.432 152.468 117.688C152.468 117.923 152.468 118.147 152.468 118.36C152.895 117.699 153.46 117.112 154.164 116.6C154.89 116.067 155.551 115.8 156.148 115.8C157.3 115.8 157.876 116.216 157.876 117.048C157.876 117.453 157.663 117.933 157.236 118.488C156.767 118.083 156.244 117.88 155.668 117.88C155.092 117.88 154.506 118.115 153.908 118.584C153.311 119.053 152.81 119.672 152.404 120.44C152.383 121.165 152.372 122.744 152.372 125.176C152.372 127.608 152.575 129.496 152.98 130.84C152.596 131.011 152.138 131.096 151.604 131.096C151.092 131.096 150.73 130.957 150.516 130.68C150.303 130.403 150.196 129.933 150.196 129.272ZM166.306 115.8C167.799 115.8 169.005 116.227 169.922 117.08C170.861 117.912 171.33 118.819 171.33 119.8C171.33 120.781 171.181 121.549 170.882 122.104C170.583 122.659 170.189 123.096 169.698 123.416C169.229 123.736 168.546 123.981 167.65 124.152C166.285 124.408 164.237 124.536 161.506 124.536C161.677 126.072 162.135 127.288 162.882 128.184C163.65 129.08 164.781 129.528 166.274 129.528C167.767 129.528 168.823 128.973 169.442 127.864C170.295 128.205 170.722 128.675 170.722 129.272C170.722 129.869 170.231 130.36 169.25 130.744C168.29 131.128 167.213 131.32 166.018 131.32C164.013 131.32 162.37 130.691 161.09 129.432C159.81 128.152 159.17 126.243 159.17 123.704C159.17 121.144 159.874 119.192 161.282 117.848C162.711 116.483 164.386 115.8 166.306 115.8ZM166.178 117.56C164.898 117.56 163.799 117.997 162.882 118.872C161.986 119.747 161.517 121.101 161.474 122.936C164.525 122.936 166.551 122.712 167.554 122.264C167.981 122.072 168.343 121.795 168.642 121.432C168.962 121.069 169.122 120.589 169.122 119.992C169.122 119.373 168.834 118.819 168.258 118.328C167.703 117.816 167.01 117.56 166.178 117.56ZM184.825 121.016L184.761 125.336C184.761 127.789 184.964 129.624 185.369 130.84C185.028 131.011 184.612 131.096 184.121 131.096C183.652 131.096 183.321 130.989 183.129 130.776C182.937 130.541 182.809 130.179 182.745 129.688C181.423 130.776 180.057 131.32 178.649 131.32C175.364 131.32 173.721 129.816 173.721 126.808C173.721 125.72 173.977 124.92 174.489 124.408C175.001 123.896 175.705 123.512 176.601 123.256C178.201 122.829 180.228 122.541 182.681 122.392C182.681 120.579 182.457 119.331 182.009 118.648C181.561 117.944 180.612 117.592 179.161 117.592C178.564 117.592 177.945 117.784 177.305 118.168C176.665 118.552 176.185 119.107 175.865 119.832C174.884 119.64 174.393 119.213 174.393 118.552C174.393 117.72 174.905 117.059 175.929 116.568C176.953 116.056 178.265 115.8 179.865 115.8C181.465 115.8 182.692 116.184 183.545 116.952C184.399 117.699 184.825 119.053 184.825 121.016ZM182.649 124.024C182.031 124.088 181.561 124.141 181.241 124.184C180.943 124.227 180.527 124.28 179.993 124.344C179.481 124.408 179.097 124.472 178.841 124.536C178.585 124.6 178.265 124.685 177.881 124.792C177.519 124.899 177.241 125.016 177.049 125.144C176.879 125.272 176.697 125.411 176.505 125.56C176.143 125.859 175.961 126.275 175.961 126.808C175.961 127.768 176.239 128.483 176.793 128.952C177.348 129.4 178.052 129.624 178.905 129.624C180.356 129.624 181.583 129.144 182.585 128.184C182.564 127.885 182.553 127.341 182.553 126.552C182.553 125.763 182.585 124.92 182.649 124.024ZM189.717 117.848C189.653 117.848 188.661 117.923 186.741 118.072C186.677 117.88 186.645 117.581 186.645 117.176C186.645 116.749 186.805 116.472 187.125 116.344C187.445 116.195 187.989 116.12 188.757 116.12H189.653C189.61 114.691 189.546 113.496 189.461 112.536C189.781 112.472 190.133 112.44 190.517 112.44C191.541 112.44 192.053 112.845 192.053 113.656C192.053 113.955 192.01 114.787 191.925 116.152C194.634 116.152 196.426 116.099 197.301 115.992C197.386 116.163 197.429 116.44 197.429 116.824C197.429 117.187 197.312 117.443 197.077 117.592C196.864 117.741 196.448 117.827 195.829 117.848C195.232 117.869 193.909 117.88 191.861 117.88C191.818 120.184 191.797 122.435 191.797 124.632C191.797 126.808 192 128.184 192.405 128.76C192.832 129.336 193.504 129.624 194.421 129.624C195.36 129.624 196.149 129.304 196.789 128.664C197.173 129.069 197.365 129.475 197.365 129.88C197.365 130.285 197.088 130.627 196.533 130.904C195.978 131.181 195.306 131.32 194.517 131.32C192.746 131.32 191.488 130.808 190.741 129.784C190.016 128.76 189.653 127.235 189.653 125.208C189.696 121.347 189.717 118.893 189.717 117.848ZM205.991 115.8C207.484 115.8 208.69 116.227 209.607 117.08C210.546 117.912 211.015 118.819 211.015 119.8C211.015 120.781 210.866 121.549 210.567 122.104C210.268 122.659 209.874 123.096 209.383 123.416C208.914 123.736 208.231 123.981 207.335 124.152C205.97 124.408 203.922 124.536 201.191 124.536C201.362 126.072 201.82 127.288 202.567 128.184C203.335 129.08 204.466 129.528 205.959 129.528C207.452 129.528 208.508 128.973 209.127 127.864C209.98 128.205 210.407 128.675 210.407 129.272C210.407 129.869 209.916 130.36 208.935 130.744C207.975 131.128 206.898 131.32 205.703 131.32C203.698 131.32 202.055 130.691 200.775 129.432C199.495 128.152 198.855 126.243 198.855 123.704C198.855 121.144 199.559 119.192 200.967 117.848C202.396 116.483 204.071 115.8 205.991 115.8ZM205.863 117.56C204.583 117.56 203.484 117.997 202.567 118.872C201.671 119.747 201.202 121.101 201.159 122.936C204.21 122.936 206.236 122.712 207.239 122.264C207.666 122.072 208.028 121.795 208.327 121.432C208.647 121.069 208.807 120.589 208.807 119.992C208.807 119.373 208.519 118.819 207.943 118.328C207.388 117.816 206.695 117.56 205.863 117.56ZM223.309 117.496C224.867 116.365 226.499 115.8 228.205 115.8C229.912 115.8 231.277 116.408 232.301 117.624C233.347 118.819 233.869 120.6 233.869 122.968C233.869 125.336 233.293 127.32 232.141 128.92C230.989 130.52 229.283 131.32 227.021 131.32C224.76 131.32 222.776 130.595 221.069 129.144C221.219 127.864 221.293 125.923 221.293 123.32C221.293 120.717 221.24 117.603 221.133 113.976C221.027 110.349 220.909 108.131 220.781 107.32C221.037 107.256 221.421 107.224 221.933 107.224C222.893 107.224 223.373 107.629 223.373 108.44C223.373 108.717 223.363 110.125 223.341 112.664C223.32 115.203 223.309 116.813 223.309 117.496ZM223.341 119.288L223.373 124.024C223.373 125.731 223.341 127.011 223.277 127.864C224.536 128.973 225.891 129.528 227.341 129.528C228.813 129.528 229.891 128.92 230.573 127.704C231.277 126.467 231.629 124.952 231.629 123.16C231.629 121.347 231.245 119.971 230.477 119.032C229.709 118.072 228.749 117.592 227.597 117.592C226.061 117.592 224.643 118.157 223.341 119.288ZM243.207 115.8C244.701 115.8 245.906 116.227 246.823 117.08C247.762 117.912 248.231 118.819 248.231 119.8C248.231 120.781 248.082 121.549 247.783 122.104C247.485 122.659 247.09 123.096 246.599 123.416C246.13 123.736 245.447 123.981 244.551 124.152C243.186 124.408 241.138 124.536 238.407 124.536C238.578 126.072 239.037 127.288 239.783 128.184C240.551 129.08 241.682 129.528 243.175 129.528C244.669 129.528 245.725 128.973 246.343 127.864C247.197 128.205 247.623 128.675 247.623 129.272C247.623 129.869 247.133 130.36 246.151 130.744C245.191 131.128 244.114 131.32 242.919 131.32C240.914 131.32 239.271 130.691 237.991 129.432C236.711 128.152 236.071 126.243 236.071 123.704C236.071 121.144 236.775 119.192 238.183 117.848C239.613 116.483 241.287 115.8 243.207 115.8ZM243.079 117.56C241.799 117.56 240.701 117.997 239.783 118.872C238.887 119.747 238.418 121.101 238.375 122.936C241.426 122.936 243.453 122.712 244.455 122.264C244.882 122.072 245.245 121.795 245.543 121.432C245.863 121.069 246.023 120.589 246.023 119.992C246.023 119.373 245.735 118.819 245.159 118.328C244.605 117.816 243.911 117.56 243.079 117.56ZM261.727 121.016L261.663 125.336C261.663 127.789 261.865 129.624 262.271 130.84C261.929 131.011 261.513 131.096 261.023 131.096C260.553 131.096 260.223 130.989 260.031 130.776C259.839 130.541 259.711 130.179 259.647 129.688C258.324 130.776 256.959 131.32 255.551 131.32C252.265 131.32 250.623 129.816 250.623 126.808C250.623 125.72 250.879 124.92 251.391 124.408C251.903 123.896 252.607 123.512 253.503 123.256C255.103 122.829 257.129 122.541 259.583 122.392C259.583 120.579 259.359 119.331 258.911 118.648C258.463 117.944 257.513 117.592 256.063 117.592C255.465 117.592 254.847 117.784 254.207 118.168C253.567 118.552 253.087 119.107 252.767 119.832C251.785 119.64 251.295 119.213 251.295 118.552C251.295 117.72 251.807 117.059 252.831 116.568C253.855 116.056 255.167 115.8 256.767 115.8C258.367 115.8 259.593 116.184 260.447 116.952C261.3 117.699 261.727 119.053 261.727 121.016ZM259.551 124.024C258.932 124.088 258.463 124.141 258.143 124.184C257.844 124.227 257.428 124.28 256.895 124.344C256.383 124.408 255.999 124.472 255.743 124.536C255.487 124.6 255.167 124.685 254.783 124.792C254.42 124.899 254.143 125.016 253.951 125.144C253.78 125.272 253.599 125.411 253.407 125.56C253.044 125.859 252.863 126.275 252.863 126.808C252.863 127.768 253.14 128.483 253.695 128.952C254.249 129.4 254.953 129.624 255.807 129.624C257.257 129.624 258.484 129.144 259.487 128.184C259.465 127.885 259.455 127.341 259.455 126.552C259.455 125.763 259.487 124.92 259.551 124.024ZM277.722 117.24L277.594 124.504C277.594 127.213 277.797 129.325 278.202 130.84C277.776 131.011 277.381 131.096 277.018 131.096C276.037 131.096 275.546 130.563 275.546 129.496C274.01 130.712 272.314 131.32 270.458 131.32C267.429 131.32 265.914 129.816 265.914 126.808L266.01 121.112C266.01 119.171 265.829 117.56 265.466 116.28C265.893 116.109 266.341 116.024 266.81 116.024C267.301 116.024 267.664 116.152 267.898 116.408C268.154 116.643 268.282 117.059 268.282 117.656C268.282 117.656 268.218 120.419 268.09 125.944C268.09 127.096 268.368 127.981 268.922 128.6C269.498 129.219 270.234 129.528 271.13 129.528C272.666 129.528 274.106 128.941 275.45 127.768C275.429 126.851 275.418 125.144 275.418 122.648C275.418 120.152 275.344 117.976 275.194 116.12C275.536 116.056 275.898 116.024 276.282 116.024C277.242 116.024 277.722 116.429 277.722 117.24ZM282.701 117.848C282.637 117.848 281.645 117.923 279.725 118.072C279.661 117.88 279.629 117.581 279.629 117.176C279.629 116.749 279.789 116.472 280.109 116.344C280.429 116.195 280.973 116.12 281.741 116.12H282.637C282.594 114.691 282.53 113.496 282.445 112.536C282.765 112.472 283.117 112.44 283.501 112.44C284.525 112.44 285.037 112.845 285.037 113.656C285.037 113.955 284.994 114.787 284.909 116.152C287.618 116.152 289.41 116.099 290.285 115.992C290.37 116.163 290.413 116.44 290.413 116.824C290.413 117.187 290.295 117.443 290.061 117.592C289.847 117.741 289.431 117.827 288.813 117.848C288.215 117.869 286.893 117.88 284.845 117.88C284.802 120.184 284.781 122.435 284.781 124.632C284.781 126.808 284.983 128.184 285.389 128.76C285.815 129.336 286.487 129.624 287.405 129.624C288.343 129.624 289.133 129.304 289.773 128.664C290.157 129.069 290.349 129.475 290.349 129.88C290.349 130.285 290.071 130.627 289.517 130.904C288.962 131.181 288.29 131.32 287.501 131.32C285.73 131.32 284.471 130.808 283.725 129.784C282.999 128.76 282.637 127.235 282.637 125.208C282.679 121.347 282.701 118.893 282.701 117.848ZM292.671 129.272L292.735 123.608C292.735 120.557 292.66 118.061 292.511 116.12C292.852 116.056 293.215 116.024 293.599 116.024C294.601 116.024 295.103 116.429 295.103 117.24C295.103 117.347 295.081 117.773 295.039 118.52C294.911 120.803 294.847 123.096 294.847 125.4C294.847 127.683 295.049 129.496 295.455 130.84C295.071 131.011 294.612 131.096 294.079 131.096C293.567 131.096 293.204 130.957 292.991 130.68C292.777 130.403 292.671 129.933 292.671 129.272ZM295.391 112.632C295.391 113.101 295.22 113.507 294.879 113.848C294.537 114.168 294.143 114.328 293.695 114.328C293.268 114.328 292.895 114.168 292.575 113.848C292.255 113.528 292.095 113.123 292.095 112.632C292.095 112.141 292.265 111.736 292.607 111.416C292.948 111.075 293.332 110.904 293.759 110.904C294.207 110.904 294.591 111.075 294.911 111.416C295.231 111.736 295.391 112.141 295.391 112.632ZM299.419 129.432L299.483 117.912C298.779 117.912 297.947 117.965 296.987 118.072C296.923 117.859 296.891 117.571 296.891 117.208C296.891 116.611 297.286 116.269 298.075 116.184C298.545 116.141 299.014 116.12 299.483 116.12C299.483 112.92 299.953 110.755 300.891 109.624C301.745 108.621 303.025 108.12 304.731 108.12C305.499 108.12 306.161 108.237 306.715 108.472C307.27 108.707 307.547 109.027 307.547 109.432C307.547 109.837 307.334 110.328 306.907 110.904C306.182 110.243 305.286 109.912 304.219 109.912C303.153 109.912 302.449 110.285 302.107 111.032C301.766 111.779 301.595 112.973 301.595 114.616V116.12C303.665 116.12 305.115 116.077 305.947 115.992C306.033 116.163 306.075 116.44 306.075 116.824C306.075 117.187 305.958 117.443 305.723 117.592C305.51 117.741 305.105 117.827 304.507 117.848C303.931 117.869 302.961 117.88 301.595 117.88V124.536C301.595 127.373 301.798 129.475 302.203 130.84C301.819 131.011 301.371 131.096 300.859 131.096C300.347 131.096 299.974 130.968 299.739 130.712C299.526 130.456 299.419 130.029 299.419 129.432ZM320.115 117.24L319.987 124.504C319.987 127.213 320.189 129.325 320.595 130.84C320.168 131.011 319.773 131.096 319.411 131.096C318.429 131.096 317.939 130.563 317.939 129.496C316.403 130.712 314.707 131.32 312.851 131.32C309.821 131.32 308.307 129.816 308.307 126.808L308.403 121.112C308.403 119.171 308.221 117.56 307.859 116.28C308.285 116.109 308.733 116.024 309.203 116.024C309.693 116.024 310.056 116.152 310.291 116.408C310.547 116.643 310.675 117.059 310.675 117.656C310.675 117.656 310.611 120.419 310.483 125.944C310.483 127.096 310.76 127.981 311.315 128.6C311.891 129.219 312.627 129.528 313.523 129.528C315.059 129.528 316.499 128.941 317.843 127.768C317.821 126.851 317.811 125.144 317.811 122.648C317.811 120.152 317.736 117.976 317.587 116.12C317.928 116.056 318.291 116.024 318.675 116.024C319.635 116.024 320.115 116.429 320.115 117.24ZM324.133 129.432L324.197 120.28V116.568C324.197 111.533 324.112 108.451 323.941 107.32C324.283 107.256 324.656 107.224 325.061 107.224C326.043 107.224 326.533 107.629 326.533 108.44C326.533 108.525 326.523 109.091 326.501 110.136C326.373 114.019 326.309 117.155 326.309 119.544V124.536C326.309 127.373 326.512 129.475 326.917 130.84C326.533 131.011 326.085 131.096 325.573 131.096C325.061 131.096 324.688 130.968 324.453 130.712C324.24 130.456 324.133 130.029 324.133 129.432ZM148.673 149.8C149.463 149.8 149.857 150.195 149.857 150.984C149.857 151.773 149.665 152.893 149.281 154.344C148.919 155.795 148.471 157.224 147.937 158.632C146.572 162.003 145.345 164.072 144.257 164.84C144.001 165.011 143.713 165.096 143.393 165.096C143.095 165.096 142.785 165.064 142.465 165C141.911 162.184 141.068 159.133 139.937 155.848C138.764 159.56 137.537 162.227 136.257 163.848C135.852 164.339 135.521 164.669 135.265 164.84C135.031 165.011 134.753 165.096 134.433 165.096C134.135 165.096 133.825 165.064 133.505 165C133.036 162.547 132.289 159.763 131.265 156.648C130.241 153.533 129.377 151.592 128.673 150.824C129.313 150.248 129.9 149.96 130.433 149.96C130.967 149.96 131.393 150.333 131.713 151.08C132.097 152.04 132.673 153.779 133.441 156.296C134.209 158.813 134.785 160.947 135.169 162.696C135.959 161.565 136.759 159.773 137.569 157.32C138.38 154.867 138.785 152.755 138.785 150.984C138.785 150.621 138.753 150.28 138.689 149.96C139.009 149.853 139.351 149.8 139.713 149.8C140.503 149.8 140.897 150.227 140.897 151.08C140.897 151.933 140.887 152.435 140.865 152.584C141.356 153.395 141.921 154.813 142.561 156.84C143.201 158.867 143.724 160.819 144.129 162.696C144.919 161.565 145.719 159.773 146.529 157.32C147.34 154.867 147.745 152.755 147.745 150.984C147.745 150.621 147.713 150.28 147.649 149.96C147.969 149.853 148.311 149.8 148.673 149.8ZM159.053 149.8C160.546 149.8 161.752 150.227 162.669 151.08C163.608 151.912 164.077 152.819 164.077 153.8C164.077 154.781 163.928 155.549 163.629 156.104C163.33 156.659 162.936 157.096 162.445 157.416C161.976 157.736 161.293 157.981 160.397 158.152C159.032 158.408 156.984 158.536 154.253 158.536C154.424 160.072 154.882 161.288 155.629 162.184C156.397 163.08 157.528 163.528 159.021 163.528C160.514 163.528 161.57 162.973 162.189 161.864C163.042 162.205 163.469 162.675 163.469 163.272C163.469 163.869 162.978 164.36 161.997 164.744C161.037 165.128 159.96 165.32 158.765 165.32C156.76 165.32 155.117 164.691 153.837 163.432C152.557 162.152 151.917 160.243 151.917 157.704C151.917 155.144 152.621 153.192 154.029 151.848C155.458 150.483 157.133 149.8 159.053 149.8ZM158.925 151.56C157.645 151.56 156.546 151.997 155.629 152.872C154.733 153.747 154.264 155.101 154.221 156.936C157.272 156.936 159.298 156.712 160.301 156.264C160.728 156.072 161.09 155.795 161.389 155.432C161.709 155.069 161.869 154.589 161.869 153.992C161.869 153.373 161.581 152.819 161.005 152.328C160.45 151.816 159.757 151.56 158.925 151.56ZM169.476 151.496C171.033 150.365 172.665 149.8 174.372 149.8C176.079 149.8 177.444 150.408 178.468 151.624C179.513 152.819 180.036 154.6 180.036 156.968C180.036 159.336 179.46 161.32 178.308 162.92C177.156 164.52 175.449 165.32 173.188 165.32C170.927 165.32 168.943 164.595 167.236 163.144C167.385 161.864 167.46 159.923 167.46 157.32C167.46 154.717 167.407 151.603 167.3 147.976C167.193 144.349 167.076 142.131 166.948 141.32C167.204 141.256 167.588 141.224 168.1 141.224C169.06 141.224 169.54 141.629 169.54 142.44C169.54 142.717 169.529 144.125 169.508 146.664C169.487 149.203 169.476 150.813 169.476 151.496ZM169.508 153.288L169.54 158.024C169.54 159.731 169.508 161.011 169.444 161.864C170.703 162.973 172.057 163.528 173.508 163.528C174.98 163.528 176.057 162.92 176.74 161.704C177.444 160.467 177.796 158.952 177.796 157.16C177.796 155.347 177.412 153.971 176.644 153.032C175.876 152.072 174.916 151.592 173.764 151.592C172.228 151.592 170.809 152.157 169.508 153.288ZM190.718 153.672C190.483 153.053 190.003 152.552 189.278 152.168C188.553 151.784 187.806 151.592 187.038 151.592C186.291 151.592 185.651 151.795 185.118 152.2C184.585 152.584 184.318 153.117 184.318 153.8C184.318 154.483 184.595 155.005 185.15 155.368C185.726 155.731 186.419 156.008 187.23 156.2C188.041 156.392 188.851 156.616 189.662 156.872C190.473 157.107 191.155 157.544 191.71 158.184C192.286 158.824 192.574 159.656 192.574 160.68C192.574 162.195 192.03 163.347 190.942 164.136C189.854 164.925 188.606 165.32 187.198 165.32C185.811 165.32 184.606 165.075 183.582 164.584C182.579 164.093 182.078 163.485 182.078 162.76C182.078 162.141 182.558 161.693 183.518 161.416C183.753 162.099 184.254 162.621 185.022 162.984C185.811 163.347 186.665 163.528 187.582 163.528C188.499 163.528 189.235 163.325 189.79 162.92C190.366 162.515 190.654 161.939 190.654 161.192C190.654 160.445 190.366 159.901 189.79 159.56C189.235 159.219 188.553 158.963 187.742 158.792C186.931 158.6 186.121 158.387 185.31 158.152C184.499 157.896 183.806 157.427 183.23 156.744C182.675 156.061 182.398 155.133 182.398 153.96C182.398 152.765 182.942 151.773 184.03 150.984C185.139 150.195 186.291 149.8 187.486 149.8C188.681 149.8 189.758 150.024 190.718 150.472C191.678 150.92 192.158 151.507 192.158 152.232C192.158 152.957 191.678 153.437 190.718 153.672ZM195.684 163.272L195.748 157.608C195.748 154.557 195.673 152.061 195.524 150.12C195.865 150.056 196.228 150.024 196.612 150.024C197.615 150.024 198.116 150.429 198.116 151.24C198.116 151.347 198.095 151.773 198.052 152.52C197.924 154.803 197.86 157.096 197.86 159.4C197.86 161.683 198.063 163.496 198.468 164.84C198.084 165.011 197.625 165.096 197.092 165.096C196.58 165.096 196.217 164.957 196.004 164.68C195.791 164.403 195.684 163.933 195.684 163.272ZM198.404 146.632C198.404 147.101 198.233 147.507 197.892 147.848C197.551 148.168 197.156 148.328 196.708 148.328C196.281 148.328 195.908 148.168 195.588 147.848C195.268 147.528 195.108 147.123 195.108 146.632C195.108 146.141 195.279 145.736 195.62 145.416C195.961 145.075 196.345 144.904 196.772 144.904C197.22 144.904 197.604 145.075 197.924 145.416C198.244 145.736 198.404 146.141 198.404 146.632ZM203.441 151.848C203.377 151.848 202.385 151.923 200.465 152.072C200.401 151.88 200.369 151.581 200.369 151.176C200.369 150.749 200.529 150.472 200.849 150.344C201.169 150.195 201.713 150.12 202.481 150.12H203.377C203.335 148.691 203.271 147.496 203.185 146.536C203.505 146.472 203.857 146.44 204.241 146.44C205.265 146.44 205.777 146.845 205.777 147.656C205.777 147.955 205.735 148.787 205.649 150.152C208.359 150.152 210.151 150.099 211.025 149.992C211.111 150.163 211.153 150.44 211.153 150.824C211.153 151.187 211.036 151.443 210.801 151.592C210.588 151.741 210.172 151.827 209.553 151.848C208.956 151.869 207.633 151.88 205.585 151.88C205.543 154.184 205.521 156.435 205.521 158.632C205.521 160.808 205.724 162.184 206.129 162.76C206.556 163.336 207.228 163.624 208.145 163.624C209.084 163.624 209.873 163.304 210.513 162.664C210.897 163.069 211.089 163.475 211.089 163.88C211.089 164.285 210.812 164.627 210.257 164.904C209.703 165.181 209.031 165.32 208.241 165.32C206.471 165.32 205.212 164.808 204.465 163.784C203.74 162.76 203.377 161.235 203.377 159.208C203.42 155.347 203.441 152.893 203.441 151.848ZM219.715 149.8C221.209 149.8 222.414 150.227 223.331 151.08C224.27 151.912 224.739 152.819 224.739 153.8C224.739 154.781 224.59 155.549 224.291 156.104C223.993 156.659 223.598 157.096 223.107 157.416C222.638 157.736 221.955 157.981 221.059 158.152C219.694 158.408 217.646 158.536 214.915 158.536C215.086 160.072 215.545 161.288 216.291 162.184C217.059 163.08 218.19 163.528 219.683 163.528C221.177 163.528 222.233 162.973 222.851 161.864C223.705 162.205 224.131 162.675 224.131 163.272C224.131 163.869 223.641 164.36 222.659 164.744C221.699 165.128 220.622 165.32 219.427 165.32C217.422 165.32 215.779 164.691 214.499 163.432C213.219 162.152 212.579 160.243 212.579 157.704C212.579 155.144 213.283 153.192 214.691 151.848C216.121 150.483 217.795 149.8 219.715 149.8ZM219.587 151.56C218.307 151.56 217.209 151.997 216.291 152.872C215.395 153.747 214.926 155.101 214.883 156.936C217.934 156.936 219.961 156.712 220.963 156.264C221.39 156.072 221.753 155.795 222.051 155.432C222.371 155.069 222.531 154.589 222.531 153.992C222.531 153.373 222.243 152.819 221.667 152.328C221.113 151.816 220.419 151.56 219.587 151.56ZM235.611 153.672C235.376 153.053 234.896 152.552 234.171 152.168C233.445 151.784 232.699 151.592 231.931 151.592C231.184 151.592 230.544 151.795 230.011 152.2C229.477 152.584 229.211 153.117 229.211 153.8C229.211 154.483 229.488 155.005 230.043 155.368C230.619 155.731 231.312 156.008 232.123 156.2C232.933 156.392 233.744 156.616 234.555 156.872C235.365 157.107 236.048 157.544 236.603 158.184C237.179 158.824 237.467 159.656 237.467 160.68C237.467 162.195 236.923 163.347 235.835 164.136C234.747 164.925 233.499 165.32 232.091 165.32C230.704 165.32 229.499 165.075 228.475 164.584C227.472 164.093 226.971 163.485 226.971 162.76C226.971 162.141 227.451 161.693 228.411 161.416C228.645 162.099 229.147 162.621 229.915 162.984C230.704 163.347 231.557 163.528 232.475 163.528C233.392 163.528 234.128 163.325 234.683 162.92C235.259 162.515 235.547 161.939 235.547 161.192C235.547 160.445 235.259 159.901 234.683 159.56C234.128 159.219 233.445 158.963 232.635 158.792C231.824 158.6 231.013 158.387 230.203 158.152C229.392 157.896 228.699 157.427 228.123 156.744C227.568 156.061 227.291 155.133 227.291 153.96C227.291 152.765 227.835 151.773 228.923 150.984C230.032 150.195 231.184 149.8 232.379 149.8C233.573 149.8 234.651 150.024 235.611 150.472C236.571 150.92 237.051 151.507 237.051 152.232C237.051 152.957 236.571 153.437 235.611 153.672ZM243.2 164.744C242.838 165.128 242.39 165.32 241.856 165.32C241.323 165.32 240.864 165.128 240.48 164.744C240.096 164.36 239.904 163.88 239.904 163.304C239.904 162.728 240.096 162.248 240.48 161.864C240.864 161.459 241.323 161.256 241.856 161.256C242.39 161.256 242.838 161.459 243.2 161.864C243.584 162.248 243.776 162.728 243.776 163.304C243.776 163.88 243.584 164.36 243.2 164.744Z" fill="#FBC22F"/>
</g>
<defs>
<filter id="filter0_d_237_25" x="-4" y="0" width="390" height="199" filterUnits="userSpaceOnUse" color-interpolation-filters="sRGB">
<feFlood flood-opacity="0" result="BackgroundImageFix"/>
<feColorMatrix in="SourceAlpha" type="matrix" values="0 0 0 0 0 0 0 0 0 0 0 0 0 0 0 0 0 0 127 0" result="hardAlpha"/>
<feOffset dy="4"/>
<feGaussianBlur stdDeviation="2"/>
<feComposite in2="hardAlpha" operator="out"/>
<feColorMatrix type="matrix" values="0 0 0 0 0 0 0 0 0 0 0 0 0 0 0 0 0 0 0.25 0"/>
<feBlend mode="normal" in2="BackgroundImageFix" result="effect1_dropShadow_237_25"/>
<feBlend mode="normal" in="SourceGraphic" in2="effect1_dropShadow_237_25" result="shape"/>
</filter>
</defs>
</svg>
